<?xml version="1.0" encoding="UTF-8"?>
<svg id="Livello_1" xmlns="http://www.w3.org/2000/svg" xmlns:xlink="http://www.w3.org/1999/xlink" version="1.1" viewBox="0 0 571.84 229.19">
  <!-- Generator: Adobe Illustrator 30.6.0, SVG Export Plug-In . SVG Version: 2.1.4 Build 109)  -->
  <defs>
    <style>
      .st0, .st1, .st2, .st3 {
        fill: none;
      }

      .st4 {
        fill: #010101;
      }

      .st1 {
        stroke: #231f20;
      }

      .st1, .st2, .st3 {
        stroke-width: .76px;
      }

      .st2 {
        stroke: #5b5a5a;
      }

      .st2, .st3 {
        stroke-linejoin: round;
      }

      .st5 {
        fill: #0099ce;
      }

      .st6 {
        clip-path: url(#clippath-1);
      }

      .st7 {
        clip-path: url(#clippath-3);
      }

      .st8 {
        clip-path: url(#clippath-2);
      }

      .st9 {
        fill: #010202;
        isolation: isolate;
        opacity: .41;
      }

      .st10 {
        fill: #fff;
      }

      .st11 {
        opacity: .4;
      }

      .st12 {
        opacity: .37;
      }

      .st13 {
        fill: #1e1e1c;
      }

      .st14 {
        fill: #626261;
      }

      .st3 {
        stroke: #a7a9ab;
        stroke-linecap: round;
      }

      .st15 {
        clip-path: url(#clippath);
      }
    </style>
    <clipPath id="clippath">
      <path class="st0" d="M18.68,6.71h437.69c1.23,0,2.28.74,2.86,1.83.73,1.38,2.16,2.31,3.83,2.31s3.11-.94,3.83-2.31c.57-1.09,1.63-1.83,2.86-1.83h85.06c6.32,0,11.46,5.12,11.46,11.46v193.85c0,6.32-5.13,11.46-11.46,11.46h-84.96c-1.25,0-2.32-.77-2.88-1.91-.71-1.43-2.19-2.42-3.9-2.42s-3.19.98-3.9,2.42c-.56,1.12-1.62,1.91-2.88,1.91H18.68c-6.32,0-11.46-5.12-11.46-11.46V18.17c0-6.33,5.12-11.46,11.46-11.46Z"/>
    </clipPath>
    <clipPath id="clippath-1">
      <rect class="st0" x="1.52" y="1.01" width="461.41" height="228.17"/>
    </clipPath>
    <clipPath id="clippath-2">
      <rect class="st0" width="571.84" height="40.4"/>
    </clipPath>
    <clipPath id="clippath-3">
      <rect class="st0" y="188.78" width="571.84" height="40.4"/>
    </clipPath>
  </defs>
  <path class="st10" d="M18.68,6.71h437.69c1.23,0,2.28.74,2.86,1.83.73,1.38,2.16,2.31,3.83,2.31s3.11-.94,3.83-2.31c.57-1.09,1.63-1.83,2.86-1.83h85.06c6.32,0,11.46,5.12,11.46,11.46v193.85c0,6.32-5.13,11.46-11.46,11.46h-84.96c-1.25,0-2.32-.77-2.88-1.91-.71-1.43-2.19-2.42-3.9-2.42s-3.19.98-3.9,2.42c-.56,1.12-1.62,1.91-2.88,1.91H18.68c-6.32,0-11.46-5.12-11.46-11.46V18.17c0-6.33,5.12-11.46,11.46-11.46Z"/>
  <g class="st15">
    <g>
      <g class="st12">
        <g class="st6">
          <g class="st11">
            <path class="st10" d="M395.98,79.63c-.35.08-.82.54-1.19,1.14,0,.05.01.1.03.14l-.15.05c-.87,1.6-.84,3.93,3.98,3.17,3.04-3.19-1.67-4.74-2.67-4.5"/>
            <path class="st10" d="M526.73,95.85c1.79,1.61-1.09,6.19-1.09,8.24,0,.68,1.1,2.36,1.18,1.68.09-.72,0,0,.17.79.4,1.78-.08,4.23-.23,6.06-.23,2.94-3.55,5.45-3.72,6.74-.28,2.09-.52,5.04-1.18,6.69-.38.95-1.42.13-1.84.9-.25.46,1.82.25,1.03.9-.42.34-1.17.14-1.5.56-.93,1.11-.75,4.54-2.2,3.52-.73-.52-1.24-1.53-1.43-2.1-.09-.25.59-.53.38-.71-.23-.21-.59.27-.89.25-1.34-.05-2.27-1.09-2.94-1.55-.37-.25-1.24-.5-1.02-.9.29-.53-.05-1.35.54-1.83.14-.12,2.22-.42,2.12-.84-.27-1.18-3.86-.89-4.28-2.13-.07-.18.39-.07.59-.1.87-.16,2.32-2.32,2.41-2.9.24-1.78-2.6.51-2.97-1.18-.07-.31-.67-.6-.45-.83.27-.27.74.21,1.11.16.76-.09-.22-.71.44-1.08l1.5-.54c.46-1.36-2.82-2.14-2.74-2.68.32-2.25,1.91-1.7,2.31-2.34.06-.08-2.2-2.98-1.84-2.94,2.8.4,1.67-2.37,2.36-2.72.25-.12.6.28.83.12l.21-1.49c.37.06.36.81.73.87.14.02,1.84-1.55,2.2-1.6,0,0,2.2.3,2.21.3.86-.25.88-1.8,1.97-2.01,1.24-.24,2.08,1.3,2.88,1.53l.98-1.01c.49-1.36-.83-2.65-.05-3.82.17-.25.72,0,.88-.27.86-1.47-1.45-2.1,1.34-1.73"/>
            <path class="st10" d="M428.15,147.57c1.09,1.57,2.1,5.17.47,5.09-1.69-.09-2.68-2.47-3.77-3.43-.54-.49-3.31-.35-3.42-.69-.16-.49.61-.9.59-1.42l-.71-.91c.24-1.17,3.41-.08,4,.05.34.07.66.23.99.2.16,0,.21-.35.36-.31.42.08-.07,1.14.35,1.23,1.53.3,0-2.05,1.14.23"/>
            <path class="st10" d="M410.17,145.41c.56,1.16-1.25.5-1.73,1.17-.9,1.25,3.89.03,1.19,1.41-.29.14-.67,0-.94.18-.15.1-.17.37-.12.56.75,2.39,6.14.58,5.57,3.3-.2.93-8.2,8.82-9.27,8.42-.6-.22-.73-2.17-1.25-2.58-.71-.54-2.13-.13-2.87-.62-1.84-1.24.77-3.65-1.04-4.86-1.86-1.23-2.37,1.39-3.35,1.57-.42.08-.15-.84-.32-1.23-.5-1.05-1.62-.17-1.94-1.4-.53-2,3.5-2.13,4.64-2.64,2.39-1.06,4.56-2.43,7.24-3.05,1.38-.31,4.22-.25,4.22-.25"/>
            <path class="st10" d="M377.95,157.88c1.24.29,1.3.95,1.01,2.16-.14.6-3.67,1.72-4.37,2.45-.31.32-.59,1.16-.98.93,0,0-.31-1.23-.32-1.24l-2.01-.47c-1.46-1.35,5.8-5.72,6.67-3.84"/>
            <path class="st10" d="M542.81,101.31c-.06.47-.03,2.69-.36,3.01-.97.93-.99-1.18-1.25-1.3-1.33-.64-3.33,1.5-4.14-.51-.72-1.78,2.5-.4,2.84-.4.99,0,2.89-.8,2.89-.8"/>
            <path class="st10" d="M518.42,134.74c.34,2.06,1.78.71,2.62,1.87.45.62-.5,2.22.27,2.32l.43-1.09c1.39-.57.62.13,1.09.52.14.13.47-.09.57.07.2.34-1.53,1.7-.62,2.58,0,0,1.98.25,1.99.25.13.09-.17.36-.34.34-2.02-.27-.22-.16-1.56.94-.31.25-1.13-.17-1.19.23l1.13.15c.94.57,1.38.58,2.31,2.2.09.16-.44-.21-.57-.07-.28.28-.58.73-.43,1.09.75,1.83.4,2.57.9,4.29.18.67,1.19.98,1.24,1.69.14,2.27-3.55,4.13-4.54,5.87-.96,1.69,1.95,3.21,1.48,4.37-1.3,3.24-2.84,8.37-3.38,12.46-.32,2.5-.86,3.63-1.61,5.48-.12.28-1.45,3.48-1.61,3.2-.79-1.33-.71-.28-1.95-1.02-.62-.37-1.36-2.46-2.62-2.62-.54-.07-.77,1.03-1.32.96-1.03-.14-1.26-2.52-2.37-2.22-.3.08.91,1.12,1.02,1.27.37.64-1.21.99-1.42,1.7-.39,1.28.87,2.3-.46,3.35-5,3.97-3.35.68-5.42.38-.64-.09-1.06,1.87-1.39,1.32-.75-1.3-1.03-4.09-1.65-5.17-.66-1.14-1.56,3.28-2.43,2.3-.34-.38-.83-3.1-.09-3.43.27-.12,1.42,1.27,1.58,1.36.36.22-.16-.87-.42-1.2-.12-.15.06-.37.08-.56s.1-.37.08-.56c0,0-1.4-1.1-.95-1.65,1.97-2.45.27-2.19,1.05-5.17.24-.93,1.7-1.55,1.88-2.76.15-.99-.32-2.37.2-3.4.01-.03.67.93,1.02,1.1.18.09.71.4.56.27-1.6-1.39,2.13-2.75.07-4.56-.51-.44-.81-.21-1.24.39-.13.17-.21.66-.37.52-.47-.42-.31-3.95-.27-4.22,0-.03,1.71-.31,1.88-.87.2-.62-.37-1.3-.3-1.94.09-1.02,1.47-2.27.77-3.32l-1.32-.95c-.45-1.31,1.28-3.43-1.21-5.37-.2-.15-1.06.34-1.21.06-.06-.12.07-.24.06-.37-.02-.27.09-.75-.17-.79-.27-.03-.29.46-.39.71-.05.12,0,.49-.06.37-.09-.17-.05-.38-.06-.58-.12-1.09.74-.4.79-1.41.28-4.94-.38,2.76-.74-1.83-.07-.95,1.73-2.21,1.92-3.15.09-.43-1.03-1.62,0-1.91.43-.12.53,2.44,1.03,2.82,5.25,3.99,10.43-3.13,14.79-4.37.8-.23,2.17-3.56,2.9-2.27"/>
            <line class="st1" x1="234.05" y1="190.75" x2="244.78" y2="194.6"/>
            <g>
              <path class="st10" d="M215.12,142.11c1.45-1.11,3.12-1.05,4.22-2.89.2-.32.06-.86.38-1.06,1.84-1.23,5.61,1.67,6.45-2.38.06-.29-.12-.62-.36-.79,0,0-2.05-.18-2.05-.2-.73-.69-.82-4.29-1.03-5.34-.19-.99-1.09-1.27-.66-2.22.07-.16,3.2-4.97,3.27-5.02.91-.62,4.41-.54,4.91-1.46.15-.28-.38-.59-.31-.9.23-1.12,2.57-1.63,2.64-3.06.08-1.67-2.06-1.16-2.69-2.14-.21-.32.5-.71.37-1.06-.17-.53-.94-.68-1.13-1.2-.93-2.41.91-5.86.9-6.06-.13-1.04-2.73-5.21-2.23-5.99.16-.24.56.2.83.29,1.14.4,7.55,3.11,8.28,2.91,1.28-.34,4.54-4.91,4.68-6.35.14-1.48-1.43-2.53-1.48-3.7-.09-3.09,5.15-1.38,5.56-3.65.12-.62-1.05-1.28-.47-2.16,0-.02,1.17-.76,1.19-.79.9-1.41,2.42-6,2.59-7.48.13-1.03-.84-2.21-.69-3.24.28-1.9,1.12-.37,2.06-.68,1.6-.53,2.61-2.73,4.17-3.34,1.03-.4,2.57.22,3.72-.32,1.09-.51,5.15-3.01,5.58-4.08,1.34-3.28-4.45-3.69-4.38-4.68.05-.79,1.94-3.17,1.62-3.84-.17-.34-.88-.03-1.06-.36-.22-.39.79-.82.57-1.2-.71-1.27-1.56-.42-2.46-1.05-.5-.35-.39-1.33-.96-1.53-.19-.07-.21.32-.32.49-.57.88-1.32.03-2.12-.35-.58-.27-3.19-2.25-3.8-1.93l-.23,1.51c-.36.29-4.2.58-4.63.37-.53-.27-.4-1.27-.95-1.54l-2.12.05c-.35-.23,1.09-.49.91-.87-.27-.61-1.09-.82-1.73-1.03-.61-.2-2.74.1-3.17-.34-.17-.19.39-.51.25-.72-.9-1.34-3.26,1.47-4.63.32-3.54-2.97,3.95-3.63,2.6-5.48-1.85-2.54-7.92-2.23-11.08-.87l-.99.53c-.6.54-2.88,2.3-3.11,3.17-.59,2.28,1.87,1.51,2.91,1.9.21.08-.44.13-.66.16-1.38.19-1.77-.46-1.99.99-.58,3.87-2.15,7.45-1.03,11.16.47,1.61-3.26,4.91-3.16,6.36,0,.1,1.08.34.79.82-.19.31-2.22.58-1.19,1.56.43.4,2.32.12,1.75.25-.82.18-3.8,1.14-4.29,1.62-1.56,1.53-2.42,4.15-3.87,5.87-.44.52-1.86,1.72-2.01,2.38-.36,1.57,2.21.73,1.64,2.23-.17.47-.73-.91-1.23-.87-.34.03-.44.53-.65.79-2.64,3.19-5.3,7.15-8.37,9.89-.44.39-2.24.95-2.45,1.48-.12.3.39.61.28.91-.12.29-.42-.51-.69-.67-.53-.32-1.17.46-1.78.53-.25.02-.5-.06-.75-.09-.25-.02-.61-.3-.75-.08-.07.1.65,2.24.02,3.23-.65,1.02-1.95,1.62-2.59,2.64-1.42,2.31-2.31,5.38-4.07,7.3-.2.22,1.53,3.7,1.7,4.1.3.72,1.32,2.3,1.28,3.08-.03,1.01-2.34.67.06.96.34.03.68.08,1.02.12,1.17.14,3.16-.56,4.06-.34.53.13.94,1.7,1.69,1.43.25-.09.54-.32.54-.6,0-.2-.62-.02-.56-.21.17-.45.91-.39,1.24-.75.14-.16.12.43.08.64-.1.62-.59,1.34-.45,2.04.21,1.01,2.08,1.47,1.98,1.54-1.9,1.14-3.97-3.09-5.34-3.61-.29-.1.29.56.43.83.29.56.76,1.05.87,1.67.75,4.58-4.09,6.78-4.68,9.07l.87,1.13c.42,1.28-.97,2.74-1.17,3.97-.17,1.06,1.35.12,1.41.52,0,.13-2.44,1.05-2.75,2.17-.91,3.32-2.78,6.12-4.98,8.94-.51.66-2.02,1.16-2.35,1.92-.08.18.2.34.29.51.64,1.1,6.56-.56,8.35.73.86.61,10.96,7.2,10.98,7.22,1.8.36,4.69-1.79,6.56-2.02.29-.03,1.12.06,2.15.23.84-4.21.17-9.07,3.95-11.98"/>
              <path class="st3" d="M498.24,73.8l-.24-1.95c.49-1.31,6.21-4.6,3.79-6.68-.99-.86-7.6,1.4-11.3-4.87-.91-1.55.23-2.05.49-2.98.21-.79-1.78-.88-1.03-2.08,1.38-2.2,5.54-3.39,3.82-6.65-.68-1.28-3.23-1.63-3.86-2.94-.22-.45.38-1.01.24-1.49-.15-.54-1.86-2.07-1.73-2.59.07-.29.57-.16.86-.24,2.28-.65,1.75.5,2.89.47.99,0,6.39-4.29,6.29-5.48-.08-.93-2.19-1.82-2.52-2.71l.12-1.77c.01-.29.17-.61.06-.89-1.65-3.83-5.71-3.17,1.87-6.59"/>
              <path class="st3" d="M398.65,84.12c-6.93,1.1-3.97-4.2-2.67-4.5,1.02-.23,5.71,1.31,2.67,4.5Z"/>
              <path class="st3" d="M211.13,154.23c.89-4.23.15-9.17,3.99-12.12,1.45-1.11,3.12-1.05,4.22-2.89.2-.32.06-.86.38-1.06,1.84-1.23,5.61,1.67,6.45-2.38.06-.29-.12-.62-.36-.79,0,0-2.05-.18-2.05-.2-.73-.69-.82-4.29-1.03-5.34-.19-.99-1.09-1.27-.66-2.22.07-.16,3.2-4.97,3.27-5.02.91-.62,4.41-.54,4.91-1.46.15-.28-.38-.59-.31-.9.23-1.12,2.57-1.63,2.64-3.06.08-1.67-2.06-1.16-2.69-2.14-.21-.32.5-.71.37-1.06-.17-.53-.94-.68-1.13-1.2-.93-2.41.91-5.86.9-6.06-.13-1.04-2.73-5.21-2.23-5.99.16-.24.56.2.83.29,1.14.4,7.55,3.11,8.28,2.91,1.28-.34,4.54-4.91,4.68-6.35.14-1.48-1.43-2.53-1.48-3.7-.09-3.09,5.15-1.38,5.56-3.65.12-.62-1.05-1.28-.47-2.16,0-.02,1.17-.76,1.19-.79.9-1.41,2.42-6,2.59-7.48.13-1.03-.84-2.21-.69-3.24.28-1.9,1.12-.37,2.06-.68,1.6-.53,2.61-2.73,4.17-3.34,1.03-.4,2.57.22,3.72-.32,1.09-.51,5.15-3.01,5.58-4.08,1.34-3.28-4.45-3.69-4.38-4.68.05-.79,1.94-3.17,1.62-3.84-.17-.34-.88-.03-1.06-.36-.22-.39.79-.82.57-1.2-.71-1.27-1.56-.42-2.46-1.05-.5-.35-.39-1.33-.96-1.53-.19-.07-.21.32-.32.49-.57.88-1.32.03-2.12-.35-.58-.27-3.19-2.25-3.8-1.93l-.23,1.51c-.36.29-4.2.58-4.63.37-.53-.27-.4-1.27-.95-1.54l-2.12.05c-.35-.23,1.09-.49.91-.87-.27-.61-1.09-.82-1.73-1.03-.61-.2-2.74.1-3.17-.34-.17-.19.39-.51.25-.72-.9-1.34-3.26,1.47-4.63.32-3.54-2.97,3.95-3.63,2.6-5.48-1.85-2.54-7.92-2.23-11.08-.87"/>
              <path class="st3" d="M422.32,90.92c-1.91-.71-6.27-3.03-8.28-1.39l-.68,1.78c-.53.17-5.16-3.46-6.07-3.67-1.27-.29-2.88.9-4.15.61-1.24-.28-.65-1.51-1.21-2.21-.64-.79-2.41-1.4-3.28-1.92"/>
              <path class="st3" d="M394.81,80.91c-.17-.68-.31-2.36-.75-2.89-.67-.83-2.66-.61-3.43-1.2,0,0-.73-1.72-.73-1.73-.79-.89-4.06-2.97-5.23-3.2-2.14-.43-.83,2.56-1.62,3.11-1.24.87-3.79-1.67-5.04-1.63,0,0-1.08.9-1.09.9-.86-.09-1.58-1.56-2.43-1.78-.81-.21-1.9.69-2.71.49-1.95-.5-1.23-2.62-2.22-3.69-1.82-1.93-5,.14-6.81-1.36-.99-.83-.53-3.36-1.46-4.29-1.85-1.86-6.63-1.6-8.07-4.12-.13-.22.05-.51.07-.77.02-.25.27-.61.07-.76-.09-.07-3.34,2.25-2.96.37.24-1.24,3.17-2.42,2.25-4.08-.58-1.06-2.44-1.06-3.26-1.45-.82-.38-1.82-2.16-2.41-2.87"/>
              <path class="st2" d="M564.12,122.26c-1.95-1.56-2.53-8.6-6.38-9.02-1.46-.15-4.87.02-5.01-.54-.5-2,1.67-.22,1.68-2.47,0-.13-3.53-5.69-3.56-5.72-.53-.45-3.01-.79-3.18-1.5-.14-.59,1.77-1.23.58-2.6-1.16-1.32-3.79-.35-4.08-.86-.68-1.2,1.76-4.66,1.35-6.69-.47-2.34-1.92-3.89-2.93-5.68-1.76-3.16,2.09-10.26-2.01-12.81-.57-.36-3.7-2.32-4.08-2.42-.31-.08.21,1.87-.2,1.5-1.41-1.27-7.47-7.99-8.75-8.39-.37-.12-.12.84-.42,1.09-.83.66-1.12-1.67-1.14-1.69-.14-.12-5.46-2.34-5.68-2.31-.77.07-5.55,1.87-5.84,2.6-.2.5-.09,1.69-.59,2.21s-1.95.38-2.58.76c-1.13.71-.22,1.06-.81,1.79-.37.45-1.18.44-1.51.93-.22.32.35.87.1,1.16-1.43,1.75-6.3,2.31-8.38,2.56-.64.07-2.86-.89-3.24-.51-2.1,2.12-3.33.86-5.82,1.76-.79.28-.16,1.98-.64,2.2-.25.13-1.93-.68-2.76-.07-.71.52-.93,1.76-1.78,2.39-.59.44-1.8-1.01-2.17-.36-.58,1.03-1.2,1.7-1.79,2.38-.35.39-1.72.05-1.48.52l1.91.31c.14.16-.24.35-.37.51-1.33,1.87-1.03,1.32-3.34,1.55-.54.06-1.11-.45-1.63-.28-.62.22-.22,1.88-.87,1.77-.79-.14-1.6-2.29-2.8-1.63-1.65.89.67,2.04-1.27,1.7-.23-.03-.64.12-.68-.12-.15-.84,1.69.46.74-1.02-.24-.39-.97,0-1.36-.24-.52-.31-.9-.93-1.5-1.03-1.77-.31.71,1.33-1.42,1.67-.91.14-.84-2.21-2.46-3.5-.84-.68-4.82-1.27-5.02-1.68-.43-.89,1.23-2.88-.2-3.49-.45-.2-4.45.87-4.67-.49-.05-.27-.12-.53-.13-.8,0-.02,5.17-1.18,3.72-1.99-.89-.51-.9,1.19-1.62-.3-.12-.23.31-.57.14-.74-.66-.67-1.83-.66-2.02.38-.12.65,1.35.88.8,1.7-.53.77-1.97-.44-2.43-.46-.59-.03-1.04.76-1.63.72-2.13-.2.27-3.67-1.38-3.99-.3-.06.35.54.39.84.1.62-.65,1.64-.43,2.23.08.2,2.27,1.33.8,1.69-.44.1-3.58-.9-3.64-1.47l.75-1.01c-.1-.65-4.9-1.68-5.58-2-2.22-1.05-1.19-3.04-4.53-3.1-1.35-.02-3.57,1.4-4.44,2.19-.43.39,2.24-.64,1.68-.51-2.07.47-3.58,2.76-5.33,3.23-1.54.4-2.68-.5-4.36.62-.67.45-1.75,2.45-2.52,2.56-.86.13.14-1.62-.65-.91-.73.65.13.83.3,1.23.61,1.36-1.83.65-1.17,2.83.07.24.06.61-.16.74-.69.4-1.12.08-1.94,1.13-.32.42,1.16.86,1.2,1.03.45,1.63-1.69,3.42-.91,5.6.36,1.02,1.23,1.8,1.36,2.98.1.95-1.04.64-.12,1.91.22.31,1.82.52,1.76,1.14-.22,2.56-3.03-.23-3.76,1.53-1.05,2.53,2.35,5.24-.46,7.62-4.14,3.5-12.78,3.8-17.59,6.21-1.65.82-2.58,2.81-4.52,3.24-2.98.66-6.57-.5-9.6-.28-1.39.1-3.8.05-5.08.35l-1.1.9c-1.39-.13-1.9-.79-3.52-.07-1.25.56-5.38,2.69-5.7,4.05,0,.03,4.34,2.3,1.88,3.17-.46.16-1.31-.2-1.77-.03-.89.32-1.79,2.38-2.54,1.32-.64-.9.81.16,1.49-.61.14-.16.57-.34.42-.47-.25-.23-.68-.03-1.02-.06-.35-.01-.69-.15-1.03-.06-2.23.68-4.23,4.79-6.01,6.28-2.12,1.77-4.58,3.12-6.82,4.5-1.42.87-7.34,7.31-8.93,8.98-1.8,1.91-1.27,12.06-.05,14.36.64,1.18,6.16,4.66,4.64,5.83-1.65,1.27-4,.76-5.63,1.68-.61.35.3,1.24-.95,1.31-1.7.09-3.65-.23-5.38.56-.86.39-.64,1.65-1.14,2.04-.49.37-1.36-.49-1.83-.08-.67.57-.38,2.27-1.05,2.83-.53.44-2.06-.42-2.6.47-.65,1.06-.12,2.75-.67,3.71-.29.52-1.77.8-2.22,1.35-.47.58.03,1.73-.58,2.17-.08.07-2.34.17-2.43.91-.2,1.56,2.35,2.95,1.95,3.24-2.39,1.77-4.29-.82-6.32-.9-.32,0-.71-.06-.97.13-.2.15.06.69-.2.72-.86.12-2.52-1.65-3.99-1.47-2.06.27-8.78,3.78-10.28,5.33-1.4,1.46-2.53,4.79-3.95,5.12-1.28.3-3.19,3.77-4.46,3.41-2.09-.59-1.62-2.51-3.5-3.33-3.93-1.72-4.93,1.19-7.01,1.1-2.42-.1-3.76-2.66-6.34-3.42-2.38-.71-5.03-.03-6.59-.4-1.06-.25-1.87-1.67-2.9-2.05-1.86-.68-12.46-3.71-13.97-3.53-1.67.21-3.9,2.86-5.56,3.35-1.69.5-2.42-1.09-3.69-1.57-1.1-.4-5.13.06-6.24.35-1.14.31-3.27,2.3-3.94,3.17l-1.13,1.47c-.47-.15-1.19-1.31-1.76-.57-.77,1.01-.49,3.83-3.7,2.32-1.61-.75-3.17-4.79-4.28-5.76,0,0-2.04-.68-2.05-.69-.38-.39-.27-1.99-.45-2.52-.51-1.43-.47-2.65-.84-4.23-.13-.52-.38-1.01-.57-1.51-.09-.24-.54-.84-.29-.75,1.02.35,2.21,1.14,2.21,1.14-.02-.4-.49-.97-.51-1.35-.13-2.06-3.17-2.1-2.28-4.73.35-1.01,1.55-.23,2.22-.82.58-.5-.38-1.71.72-2.13.1-.03,3.02,1.32,2.56.07-.08-.22-.46.16-.69.16-.31,0-.61-.07-.93-.12s-.65-.27-.93-.13c-.35.18-.67,2.15-1.3,1.93-.82-.28-.87-3.6-1.3-4.39-1.33-2.45-4.05-4.45-5.12-6.93-.23-.53,1.42-1.3.88-1.48-.64-.22-1.56,1.25-2.31.98l-1.47-1.31c-.96-.58-7.22-1.78-8.12-1.68-1.86.23-4.74,2.38-6.56,2.02-.02,0-10.13-6.59-10.98-7.22-1.79-1.28-7.71.37-8.35-.73-.09-.17-.37-.32-.29-.51.32-.76,1.84-1.26,2.35-1.92,2.2-2.81,4.06-5.62,4.98-8.94.31-1.13,2.76-2.05,2.75-2.17-.06-.4-1.58.54-1.41-.52.2-1.23,1.58-2.68,1.17-3.97l-.87-1.13c.59-2.29,5.43-4.49,4.68-9.07-.1-.61-.58-1.11-.87-1.67-.14-.28-.72-.94-.43-.83,1.36.51,3.45,4.74,5.34,3.61.12-.07-1.76-.53-1.98-1.54-.15-.69.34-1.41.45-2.04.03-.21.06-.8-.08-.64-.32.36-1.06.3-1.24.75-.07.18.56,0,.56.21,0,.27-.29.51-.54.6-.75.27-1.16-1.31-1.69-1.43-.9-.22-2.89.47-4.06.34-.34-.03-.68-.08-1.02-.12-2.41-.29-.09.05-.06-.96.02-.77-.98-2.36-1.28-3.08-.17-.42-1.9-3.89-1.7-4.1,1.77-1.92,2.65-4.98,4.07-7.3.62-1.02,1.94-1.62,2.59-2.64M565.52,122.41s-1.4-.14-1.4-.15M194.54,98.88c.62-.98-.09-3.12-.02-3.23.14-.22.5.06.75.08.25.03.5.12.75.09.61-.07,1.25-.84,1.78-.53.28.16.58.96.69.67.12-.3-.39-.61-.28-.91.21-.53,2-1.09,2.45-1.48,3.08-2.74,5.74-6.69,8.37-9.89M209.03,83.67c.22-.27.31-.75.65-.79.5-.05,1.05,1.33,1.23.87.57-1.5-2-.66-1.64-2.23.15-.66,1.57-1.86,2.01-2.38,1.45-1.72,2.3-4.35,3.87-5.87.49-.47,3.47-1.43,4.29-1.62.57-.14-1.33.16-1.75-.25-1.03-.98,1.01-1.26,1.19-1.56.29-.47-.79-.72-.79-.82-.1-1.45,3.63-4.74,3.16-6.36-1.11-3.71.46-7.28,1.03-11.16.22-1.47.61-.81,1.99-.99.22-.03.88-.08.66-.16-1.04-.38-3.5.38-2.91-1.9.27-1.02,3.4-3.31,3.26-3.34l-1.68.72c-.2-.17,1.01-4.9,1.33-5.15,1.14-.87.74.28,1.32.5.39.15-.28-.87-.13-1.26.15-.38.87-.09,1.18-.36.22-.19.4-.43.66-.56.77-.38,1.87-.2,2.62-.64.34-.2,1.04-1.05.66-.96-.46.12-4.47,2.36-4.59.3-.03-.57,4.66-1.64,4.73-2.27,0-.13-2.89-.21-3.15-.37-.49-.32-1.87-3.12,0-2.42.17.07-.38,1.35.52,1.01,1.01-.39.29-1.54.8-2.13.29-.34.95-.05,1.31-.31.52-.39,1.61-2.07,1.18-1.57-1.71,1.99-1.2-.67-1.83-.68-1.23-.03.34,1.34-1.18.77-.52-.2-2.52,2.15-2.89,1.33-1.3-2.93,4.74-5.06,4.74-5.48,0-.19-.34-.24-.52-.2-.81.2-1.35-.14-2.35-.08-.13,0-.05.27-.14.36-.23.22-.47.49-.79.51-.36.02-.15-.72-.19-1.09-.02-.2,1.19-3.39.24-3.75-.68-.25-1.19,1.3-1.7.57-.4-.58.36-1.26.61-1.58.43-.56-.17-2.29.49-2.05,0,0,2.05-.25,2.21-.37.37-.24,1.14.1,1.3-.31.06-.16-2.36.12-1.8-.68.76-1.11,1.77-.05,2.73-.19.46-.07.72-.84,1.17-.76,2.75.46-2.56.86,1.16.84,2.29,0,5.28-1.48,7.49-2.1,2.51-.72,10.7-4.04,12.79-3.71,1.7.27-1.28,2.35-.38,2.68.36.13.07-.86.38-1.06.23-.15.5.3.77.28.4-.03,2.02-1.04,2.69-1.04.51,0-1.28,1.33-.76,1.33.89,0,1.28-1.27,1.28.46,0,.25-.5.62-.25.71.6.22,1.54-.86,2.31.02,1.11,1.26,1.5,3.95,2.09,4.75.54.74,2.98.36,3.75.91.25.19-1.17,1.31-.88,1.7.13.16.3-.3.45-.45.59-.59.72-1.08,1.73-.8,2.75.77,5.87,2.13,8.18,3.23.83.39,2.67-.45,3.23-.1,1.14.74,3.01,2.41,4.81,2.02.89-.19.06-1.53,1.64-1.45.87.05,1.86,3.31,2.02,3.46.36.34,4.71,1.18,4.31,1.82-.16.27-1.05.45-.75.54.36.12.65-.44,1.02-.46s.74.13,1.04.34c.54.38.67,1.2,1.21,1.58,3.62,2.59,9.76,4.9,13.18,6.58,1.48.72,4.49.21,5.85.62.4.13.45-.81.86-.93.31-.08.65.07.97.1s.67-.02.97.1c2.12.9-1.9,1.4-.56,1.8,1.49.45,1.77-1.63,4.34-1.05.29.07,1.92,1.57,2.04,1.79.13.25-2.6.8-.96,1.3.25.08.21-.62.49-.65,2.44-.15,4.28,4.04,6.09,4.58.24.07.06-.51.08-.76s-.09-.58.08-.76c.56-.61,4.6-.64,4.9-.14.38.62-.2,2.23.53,2.13.27-.03.22-.59.47-.65.56-.14,6.08,4.5,7.74,4.96.87.25,2.06-.47,2.96-.34l.96.66c.59-.23,1.14-1.54,2.09-1.38.84.14,2.08.93,3.28.52,3.34-1.16,9.38-15.26,10.75-18.86.59-1.55,1.13-5.68,2.91-6.42,0,0,2.44,1.3,2.6.69,1.76-6.54-3.94.75-3.63-.98.79-4.45,3.83-8.61,5.19-12.89.26-.82.47-1.82.77-2.75M313.64,221.35c4.29-1.72,6.97,1.43,7.71,1.27,1.88-.42,3.91-4.36,5.84-2.72,1.48,1.25.68,3.19,3.56,3.62,3.89.58,4.74-4.78,7.85-5.72,2.15-.66,6.61-2.64,8.96-2.79,1.67-.1,3.42.61,5.15-.29,1.03-.54,1.48-1.3,2.83-1.24,1.36.05,2.62.68,3.98.57.64-.05,1.12-.76,1.76-.74.75.03,1.47,1.17,2.22,1.3,3.15.51,6.9.9,10.13,1.19,1.85.17,3.9-.58,5.71-.24,1.38.25,2.36,1.75,3.95,2.02,3.25.58,4.94-2.87,7.03-3.45,2.47-.68,3.17,3.58,5.45,2.31.8-.44-.23-1.58.91-1.34,1.12.24,2.37,1.91,3.97,1.99,2.6.12,5.32-2.53,7.86-1.83,1.82.51,3.87,1.33,5.54,1.87,1.19.39,3.13-.14,4.34.09.66.13,1.27.97,1.95,1.14M202.39,221.44c6.88-5.78,12.83-13.17,18.18-20.13.93-1.2,6.75-8.61,7.18-8.52.09.02,1.85,1.02,1.94,1.04.97.2,2.27-.03,3.18.27,1.16.38,5.27-2.78,6.19.06.2.61-1.4.43-1.64,1.03l-.22,2.02c-.03.34-.23.69-.12,1.01.64,1.6,0,1.56.37,2.87,1.41,4.91,7.78,13.08,13.14,14.37,1.51.37,7.85-.5,8.56-.08.47.28-.16,1.69,1.36,1.98,1.43.27,1.6-1.92,3.24-.96,1.75,1.03,3.04,3.46,5.35,3.95,1.38.29,4.27-.42,5.45-.72.22-.06,3.06-2.87,3.05-2.6-.09,1.08-.59,2.61-.74,4.02M377.95,157.88c1.24.29,1.3.95,1.01,2.16-.14.6-3.67,1.72-4.37,2.45-.31.32-.59,1.16-.98.93,0,0-.31-1.23-.32-1.24l-2.01-.47c-1.46-1.35,5.8-5.72,6.67-3.84h.01-.01ZM410.17,145.41c.56,1.16-1.25.5-1.73,1.17-.9,1.25,3.89.03,1.19,1.41-.29.14-.67,0-.94.18-.15.1-.17.37-.12.56.75,2.39,6.14.58,5.57,3.3-.2.93-8.2,8.82-9.27,8.42-.6-.22-.73-2.17-1.25-2.58-.71-.54-2.13-.13-2.87-.62-1.84-1.24.77-3.65-1.04-4.86-1.86-1.23-2.37,1.39-3.35,1.57-.42.08-.15-.84-.32-1.23-.5-1.05-1.62-.17-1.94-1.4-.53-2,3.5-2.13,4.64-2.64,2.39-1.06,4.56-2.43,7.24-3.05,1.38-.31,4.22-.25,4.22-.25l-.02.02h-.01ZM428.15,147.57c1.09,1.57,2.1,5.17.47,5.09-1.69-.09-2.68-2.47-3.77-3.43-.54-.49-3.31-.35-3.42-.69-.16-.49.61-.9.59-1.42l-.71-.91c.24-1.17,3.41-.08,4,.05.34.07.66.23.99.2.16,0,.21-.35.36-.31.42.08-.07,1.14.35,1.23,1.53.3,0-2.05,1.14.23h-.01v-.04ZM428.07,147.94c-.97.15-1.23.18-2.2.32-5.27.77,1.82-1.1,2.2-.32ZM518.42,134.74c.34,2.06,1.78.71,2.62,1.87.45.62-.5,2.22.27,2.32l.43-1.09c1.39-.57.62.13,1.09.52.14.13.47-.09.57.07.2.34-1.53,1.7-.62,2.58,0,0,1.98.25,1.99.25.13.09-.17.36-.34.34-2.02-.27-.22-.16-1.56.94-.31.25-1.13-.17-1.19.23l1.13.15c.94.57,1.38.58,2.31,2.2.09.16-.44-.21-.57-.07-.28.28-.58.73-.43,1.09.75,1.83.4,2.57.9,4.29.18.67,1.19.98,1.24,1.69.14,2.27-3.55,4.13-4.54,5.87-.96,1.69,1.95,3.21,1.48,4.37-1.3,3.24-2.84,8.37-3.38,12.46-.32,2.5-.86,3.63-1.61,5.48-.12.28-1.45,3.48-1.61,3.2-.79-1.33-.71-.28-1.95-1.02-.62-.37-1.36-2.46-2.62-2.62-.54-.07-.77,1.03-1.32.96-1.03-.14-1.26-2.52-2.37-2.22-.3.08.91,1.12,1.02,1.27.37.64-1.21.99-1.42,1.7-.39,1.28.87,2.3-.46,3.35-5,3.97-3.35.68-5.42.38-.64-.09-1.06,1.87-1.39,1.32-.75-1.3-1.03-4.09-1.65-5.17-.66-1.14-1.56,3.28-2.43,2.3-.34-.38-.83-3.1-.09-3.43.27-.12,1.42,1.27,1.58,1.36.36.22-.16-.87-.42-1.2-.12-.15.06-.37.08-.56s.1-.37.08-.56c0,0-1.4-1.1-.95-1.65,1.97-2.45.27-2.19,1.05-5.17.24-.93,1.7-1.55,1.88-2.76.15-.99-.32-2.37.2-3.4.01-.03.67.93,1.02,1.1.18.09.71.4.56.27-1.6-1.39,2.13-2.75.07-4.56-.51-.44-.81-.21-1.24.39-.13.17-.21.66-.37.52-.47-.42-.31-3.95-.27-4.22,0-.03,1.71-.31,1.88-.87.2-.62-.37-1.3-.3-1.94.09-1.02,1.47-2.27.77-3.32l-1.32-.95c-.45-1.31,1.28-3.43-1.21-5.37-.2-.15-1.06.34-1.21.06-.06-.12.07-.24.06-.37-.02-.27.09-.75-.17-.79-.27-.03-.29.46-.39.71-.05.12,0,.49-.06.37-.09-.17-.05-.38-.06-.58-.12-1.09.74-.4.79-1.41.28-4.94-.38,2.76-.74-1.83-.07-.95,1.73-2.21,1.92-3.15.09-.43-1.03-1.62,0-1.91.43-.12.53,2.44,1.03,2.82,5.25,3.99,10.43-3.13,14.79-4.37.8-.23,2.17-3.56,2.9-2.27h-.02v.03ZM526.73,95.85c1.79,1.61-1.09,6.19-1.09,8.24,0,.68,1.1,2.36,1.18,1.68.09-.72,0,0,.17.79.4,1.78-.08,4.23-.23,6.06-.23,2.94-3.55,5.45-3.72,6.74-.28,2.09-.52,5.04-1.18,6.69-.38.95-1.42.13-1.84.9-.25.46,1.82.25,1.03.9-.42.34-1.17.14-1.5.56-.93,1.11-.75,4.54-2.2,3.52-.73-.52-1.24-1.53-1.43-2.1-.09-.25.59-.53.38-.71-.23-.21-.59.27-.89.25-1.34-.05-2.27-1.09-2.94-1.55-.37-.25-1.24-.5-1.02-.9.29-.53-.05-1.35.54-1.83.14-.12,2.22-.42,2.12-.84-.27-1.18-3.86-.89-4.28-2.13-.07-.18.39-.07.59-.1.87-.16,2.32-2.32,2.41-2.9.24-1.78-2.6.51-2.97-1.18-.07-.31-.67-.6-.45-.83.27-.27.74.21,1.11.16.76-.09-.22-.71.44-1.08l1.5-.54c.46-1.36-2.82-2.14-2.74-2.68.32-2.25,1.91-1.7,2.31-2.34.06-.08-2.2-2.98-1.84-2.94,2.8.4,1.67-2.37,2.36-2.72.25-.12.6.28.83.12l.21-1.49c.37.06.36.81.73.87.14.02,1.84-1.55,2.2-1.6,0,0,2.2.3,2.21.3.86-.25.88-1.8,1.97-2.01,1.24-.24,2.08,1.3,2.88,1.53l.98-1.01c.49-1.36-.83-2.65-.05-3.82.17-.25.72,0,.88-.27.86-1.47-1.45-2.1,1.34-1.73h0ZM542.81,101.31c-.06.47-.03,2.69-.36,3.01-.97.93-.99-1.18-1.25-1.3-1.33-.64-3.33,1.5-4.14-.51-.72-1.78,2.5-.4,2.84-.4.99,0,2.89-.8,2.89-.8h.02Z"/>
            </g>
            <path class="st9" d="M374.85,167.88c-4.24,0-7.7-3.46-7.7-7.7s3.46-7.7,7.7-7.7,7.7,3.46,7.7,7.7-3.46,7.7-7.7,7.7ZM374.85,152.97c-3.98,0-7.2,3.24-7.2,7.2s3.24,7.2,7.2,7.2,7.2-3.24,7.2-7.2-3.24-7.2-7.2-7.2Z"/>
            <path class="st9" d="M374.85,169.92c-5.37,0-9.74-4.37-9.74-9.74s4.37-9.74,9.74-9.74,9.74,4.37,9.74,9.74-4.37,9.74-9.74,9.74ZM374.85,150.92c-5.1,0-9.25,4.15-9.25,9.25s4.15,9.25,9.25,9.25,9.25-4.15,9.25-9.25-4.15-9.25-9.25-9.25Z"/>
            <path class="st9" d="M374.85,172.34c-6.71,0-12.15-5.46-12.15-12.15s5.46-12.15,12.15-12.15,12.15,5.46,12.15,12.15-5.46,12.15-12.15,12.15ZM374.85,148.51c-6.43,0-11.67,5.24-11.67,11.67s5.24,11.67,11.67,11.67,11.67-5.24,11.67-11.67-5.24-11.67-11.67-11.67Z"/>
            <path class="st9" d="M374.85,175.59c-8.5,0-15.4-6.91-15.4-15.4s6.91-15.4,15.4-15.4,15.4,6.91,15.4,15.4-6.91,15.4-15.4,15.4ZM374.85,145.26c-8.22,0-14.92,6.69-14.92,14.92s6.69,14.92,14.92,14.92,14.92-6.69,14.92-14.92-6.69-14.92-14.92-14.92Z"/>
            <path class="st9" d="M374.85,179.83c-10.83,0-19.65-8.81-19.65-19.65s8.81-19.65,19.65-19.65,19.65,8.81,19.65,19.65-8.81,19.65-19.65,19.65ZM374.85,141.01c-10.57,0-19.16,8.59-19.16,19.16s8.59,19.16,19.16,19.16,19.16-8.59,19.16-19.16-8.59-19.16-19.16-19.16Z"/>
            <path class="st9" d="M374.85,185.64c-14.04,0-25.45-11.42-25.45-25.45s11.42-25.45,25.45-25.45,25.45,11.41,25.45,25.45-11.42,25.45-25.45,25.45ZM374.85,135.21c-13.77,0-24.96,11.2-24.96,24.96s11.2,24.96,24.96,24.96,24.96-11.2,24.96-24.96-11.2-24.96-24.96-24.96Z"/>
            <path class="st9" d="M374.85,193.44c-18.34,0-33.27-14.93-33.27-33.27s14.93-33.27,33.27-33.27,33.27,14.93,33.27,33.27-14.93,33.27-33.27,33.27ZM374.85,127.4c-18.07,0-32.78,14.71-32.78,32.78s14.71,32.78,32.78,32.78,32.78-14.71,32.78-32.78-14.71-32.78-32.78-32.78Z"/>
            <path class="st9" d="M374.85,204.14c-24.24,0-43.96-19.73-43.96-43.96s19.73-43.96,43.96-43.96,43.96,19.73,43.96,43.96-19.73,43.96-43.96,43.96ZM374.85,116.71c-23.97,0-43.48,19.51-43.48,43.48s19.51,43.48,43.48,43.48,43.48-19.51,43.48-43.48-19.51-43.48-43.48-43.48Z"/>
            <path class="st9" d="M374.85,218.09c-31.94,0-57.92-25.98-57.92-57.92s25.98-57.92,57.92-57.92,57.92,25.98,57.92,57.92-25.98,57.92-57.92,57.92ZM374.85,102.75c-31.66,0-57.42,25.76-57.42,57.42s25.76,57.42,57.42,57.42,57.42-25.76,57.42-57.42-25.76-57.42-57.42-57.42Z"/>
            <path class="st9" d="M323.91,222.2c-17.91-14.74-29.36-37.07-29.36-62.03,0-44.28,36.02-80.3,80.3-80.3s80.3,36.02,80.3,80.3c0,24.77-11.28,46.96-28.97,61.71M425.15,220.82c18.12-15.06,28.51-37.16,28.51-60.63,0-43.46-35.35-78.81-78.81-78.81s-78.81,35.35-78.81,78.81c0,23.57,10.46,45.73,28.71,60.79l-.3.37"/>
          </g>
        </g>
      </g>
      <path class="st13" d="M0,0h571.37v14.12c0,14.51-11.78,26.29-26.29,26.29H0V.02h0V0Z"/>
      <g class="st8">
        <g>
          <g>
            <path class="st10" d="M25.57,33.74h-8.23l7.45-21.41h8.6l7.64,21.41h-8.23l-.71-2.67h-5.87l-.62,2.67h-.03ZM30.72,25.99l-.91-3.78c-.23-.91-.37-1.85-.51-2.75h-.29l-1.42,6.53h3.13Z"/>
            <path class="st10" d="M42.7,12.32h7.78v21.41h-7.78V12.32Z"/>
            <path class="st10" d="M54.08,12.32h9.4c4.83,0,8.92,2.05,8.92,7.45,0,3.24-1.25,4.6-4.15,5.56v.17c.39.31.88.66,1.31,1.28l4.66,6.96h-8.97l-3.41-6.87h-.14v6.87h-7.61V12.33h0ZM61.7,21.81h.54c1.28,0,2.56-.2,2.56-1.79s-1.17-1.85-2.5-1.85h-.6v3.63h0Z"/>
            <path class="st10" d="M75.59,12.32h7.78v14.55h6.53v6.87h-14.32V12.32h.01Z"/>
            <path class="st10" d="M92.09,12.32h7.78v21.41h-7.78V12.32Z"/>
            <path class="st10" d="M103.37,12.32h7.47l6.98,11.88h.23c-.31-1.79-.65-3.63-.65-5.46v-6.42h7.45v21.41h-7.45l-6.85-11.25h-.23c.25,1.48.49,2.87.49,4.29v6.96h-7.45V12.32h0Z"/>
            <path class="st10" d="M128.13,12.32h14.4v5.85h-6.56v2.05h5.99v5.56h-5.99v2.1h6.79v5.85h-14.63s0-21.41,0-21.41Z"/>
            <path class="st10" d="M147.25,26.07l.39.31c1.39,1.08,3.06,1.95,4.86,1.95.76,0,1.99-.31,1.99-1.28s-1.02-1.05-1.73-1.19l-1.56-.29c-3.04-.54-5.6-2.32-5.6-5.68,0-5.09,4.63-7.92,9.29-7.92,2.44,0,4.68.6,6.79,1.87l-2.1,5.48c-1.33-.91-2.84-1.62-4.52-1.62-.68,0-1.68.25-1.68,1.13,0,.8.97.91,1.56,1.05l1.76.39c3.3.74,5.68,2.5,5.68,6.14,0,5.11-4.66,7.64-9.29,7.64-2.69,0-5.83-.74-8.23-1.95l2.38-6.05h.02v.02Z"/>
          </g>
          <g>
            <path class="st5" d="M167.66,12.32h7.59l-.17,9.29h.17c.17-.88.66-1.64,1.08-2.42l3.75-6.87h8.49l-6.71,10.43,7.41,11h-9.03l-3.69-6.48c-.45-.82-1.13-1.62-1.31-2.5h-.17l.17,8.97h-7.59V12.33h0Z"/>
            <path class="st5" d="M190.97,12.32h7.78v21.41h-7.78V12.32Z"/>
            <path class="st5" d="M203.64,26.07l.39.31c1.39,1.08,3.06,1.95,4.86,1.95.76,0,1.99-.31,1.99-1.28s-1.02-1.05-1.73-1.19l-1.56-.29c-3.04-.54-5.6-2.32-5.6-5.68,0-5.09,4.63-7.92,9.29-7.92,2.44,0,4.68.6,6.79,1.87l-2.1,5.48c-1.33-.91-2.84-1.62-4.52-1.62-.68,0-1.68.25-1.68,1.13,0,.8.97.91,1.56,1.05l1.76.39c3.3.74,5.68,2.5,5.68,6.14,0,5.11-4.66,7.64-9.29,7.64-2.69,0-5.83-.74-8.23-1.95l2.38-6.05h.02v.02Z"/>
            <path class="st5" d="M222.47,26.07l.39.31c1.39,1.08,3.06,1.95,4.86,1.95.76,0,1.99-.31,1.99-1.28s-1.02-1.05-1.73-1.19l-1.56-.29c-3.04-.54-5.6-2.32-5.6-5.68,0-5.09,4.63-7.92,9.29-7.92,2.44,0,4.68.6,6.79,1.87l-2.1,5.48c-1.33-.91-2.84-1.62-4.52-1.62-.68,0-1.68.25-1.68,1.13,0,.8.97.91,1.56,1.05l1.76.39c3.3.74,5.68,2.5,5.68,6.14,0,5.11-4.66,7.64-9.29,7.64-2.69,0-5.83-.74-8.23-1.95l2.38-6.05h.02v.02Z"/>
            <path class="st5" d="M240.08,12.32h7.59l-.17,9.29h.17c.17-.88.66-1.64,1.08-2.42l3.75-6.87h8.49l-6.71,10.43,7.41,11h-9.03l-3.69-6.48c-.45-.82-1.13-1.62-1.31-2.5h-.17l.17,8.97h-7.59V12.33h0Z"/>
            <path class="st5" d="M263.39,12.32h7.78v21.41h-7.78V12.32Z"/>
            <path class="st5" d="M276.06,26.07l.39.31c1.39,1.08,3.06,1.95,4.86,1.95.76,0,1.99-.31,1.99-1.28s-1.02-1.05-1.73-1.19l-1.56-.29c-3.04-.54-5.6-2.32-5.6-5.68,0-5.09,4.63-7.92,9.29-7.92,2.44,0,4.68.6,6.79,1.87l-2.1,5.48c-1.33-.91-2.84-1.62-4.52-1.62-.68,0-1.68.25-1.68,1.13,0,.8.97.91,1.56,1.05l1.76.39c3.3.74,5.68,2.5,5.68,6.14,0,5.11-4.66,7.64-9.29,7.64-2.69,0-5.83-.74-8.23-1.95l2.38-6.05h.02v.02Z"/>
            <path class="st5" d="M294.88,26.07l.39.31c1.39,1.08,3.06,1.95,4.86,1.95.76,0,1.99-.31,1.99-1.28s-1.02-1.05-1.73-1.19l-1.56-.29c-3.04-.54-5.6-2.32-5.6-5.68,0-5.09,4.63-7.92,9.29-7.92,2.44,0,4.68.6,6.79,1.87l-2.1,5.48c-1.33-.91-2.84-1.62-4.52-1.62-.68,0-1.68.25-1.68,1.13,0,.8.97.91,1.56,1.05l1.76.39c3.3.74,5.68,2.5,5.68,6.14,0,5.11-4.66,7.64-9.29,7.64-2.69,0-5.83-.74-8.23-1.95l2.38-6.05h.02v.02Z"/>
          </g>
          <g>
            <path class="st10" d="M320.64,33.74h-8.23l7.45-21.41h8.6l7.64,21.41h-8.23l-.71-2.67h-5.87l-.62,2.67h-.03ZM325.77,25.99l-.91-3.78c-.23-.91-.37-1.85-.51-2.75h-.29l-1.42,6.53h3.13Z"/>
            <path class="st10" d="M337.76,12.32h7.78v21.41h-7.78V12.32Z"/>
            <path class="st10" d="M349.15,12.32h9.4c4.83,0,8.92,2.05,8.92,7.45,0,3.24-1.25,4.6-4.15,5.56v.17c.39.31.88.66,1.31,1.28l4.66,6.96h-8.97l-3.41-6.87h-.14v6.87h-7.61V12.33h-.01ZM356.76,21.81h.54c1.28,0,2.56-.2,2.56-1.79s-1.17-1.85-2.5-1.85h-.6v3.63h0Z"/>
            <path class="st10" d="M370.65,12.32h7.78v14.55h6.53v6.87h-14.32V12.32h.01Z"/>
            <path class="st10" d="M387.15,12.32h7.78v21.41h-7.78V12.32Z"/>
            <path class="st10" d="M398.42,12.32h7.47l6.98,11.88h.23c-.31-1.79-.65-3.63-.65-5.46v-6.42h7.45v21.41h-7.45l-6.85-11.25h-.23c.25,1.48.49,2.87.49,4.29v6.96h-7.45V12.32h.01Z"/>
            <path class="st10" d="M423.19,12.32h14.4v5.85h-6.56v2.05h5.99v5.56h-5.99v2.1h6.79v5.85h-14.63V12.32Z"/>
            <path class="st10" d="M442.3,26.07l.39.31c1.39,1.08,3.06,1.95,4.86,1.95.76,0,1.99-.31,1.99-1.28s-1.02-1.05-1.73-1.19l-1.56-.29c-3.04-.54-5.6-2.32-5.6-5.68,0-5.09,4.63-7.92,9.29-7.92,2.44,0,4.68.6,6.79,1.87l-2.1,5.48c-1.33-.91-2.84-1.62-4.52-1.62-.68,0-1.68.25-1.68,1.13,0,.8.97.91,1.56,1.05l1.76.39c3.3.74,5.68,2.5,5.68,6.14,0,5.11-4.66,7.64-9.29,7.64-2.69,0-5.83-.74-8.23-1.95l2.38-6.05h.02v.02Z"/>
          </g>
        </g>
      </g>
      <path class="st13" d="M0,188.78h492.64c6.37,0,11.55,5.18,11.55,11.55v28.86H0v-40.4h0Z"/>
      <g>
        <path class="st14" d="M463.61,213.51v3.04l-.94-.09v-3.04l.94.09Z"/>
        <path class="st14" d="M463.61,206.83v3.04l-.94-.09v-3.04l.94.09Z"/>
        <path class="st14" d="M463.61,200.16v3.04l-.94-.09v-3.04l.94.09Z"/>
        <path class="st14" d="M463.61,193.48v3.04l-.94-.09v-3.04l.94.09Z"/>
        <path class="st14" d="M463.61,186.8v3.04l-.94-.09v-3.04l.94.09Z"/>
        <path class="st14" d="M463.61,180.13v3.04l-.94-.09v-3.04l.94.09Z"/>
        <path class="st14" d="M463.61,173.45v3.04l-.94-.09v-3.04l.94.09Z"/>
        <path class="st14" d="M463.61,166.78v3.04l-.94-.09v-3.04l.94.09Z"/>
        <path class="st14" d="M463.61,160.09v3.04l-.94-.09v-3.04l.94.09Z"/>
        <path class="st14" d="M463.61,153.42v3.04l-.94-.09v-3.04l.94.09Z"/>
        <path class="st14" d="M463.61,146.74v3.04l-.94-.09v-3.04l.94.09Z"/>
        <path class="st14" d="M463.61,140.07v3.04l-.94-.09v-3.04l.94.09Z"/>
        <path class="st14" d="M463.61,133.38v3.04l-.94-.09v-3.04s.94.09.94.09Z"/>
        <path class="st14" d="M463.61,126.71v3.04l-.94-.09v-3.04l.94.09Z"/>
        <path class="st14" d="M463.61,120.03v3.04l-.94-.09v-3.04l.94.09Z"/>
        <path class="st14" d="M463.61,113.36v3.04l-.94-.09v-3.04l.94.09Z"/>
        <path class="st14" d="M463.61,106.68v3.04l-.94-.09v-3.04l.94.09Z"/>
        <path class="st14" d="M463.61,100v3.04l-.94-.09v-3.04l.94.09Z"/>
        <path class="st14" d="M463.61,93.33v3.04l-.94-.09v-3.04l.94.09Z"/>
        <path class="st14" d="M463.61,86.65v3.04l-.94-.09v-3.04l.94.09Z"/>
        <path class="st14" d="M463.61,79.97v3.04l-.94-.09v-3.04l.94.09Z"/>
        <path class="st14" d="M463.61,73.29v3.04l-.94-.09v-3.04l.94.09Z"/>
        <path class="st14" d="M463.61,66.62v3.04l-.94-.09v-3.04l.94.09Z"/>
        <path class="st14" d="M463.61,59.95v3.04l-.94-.09v-3.04l.94.09Z"/>
        <path class="st14" d="M463.61,53.26v3.04l-.94-.09v-3.04l.94.09h0Z"/>
        <path class="st14" d="M463.61,46.59v3.04l-.94-.09v-3.04l.94.09Z"/>
        <path class="st14" d="M463.61,39.91v3.04l-.94-.09v-3.04l.94.09Z"/>
        <path class="st14" d="M463.61,33.24v3.04l-.94-.09v-3.04s.94.09.94.09Z"/>
        <path class="st14" d="M463.61,26.55v3.04l-.94-.09v-3.04l.94.09Z"/>
        <path class="st14" d="M463.61,19.88v3.04l-.94-.09v-3.04s.94.09.94.09Z"/>
        <path class="st14" d="M463.61,13.2v3.04l-.94-.09v-3.04l.94.09Z"/>
      </g>
      <g>
        <g>
          <path class="st4" d="M150.24,115.14l-.84-.18c-.29-.07-.75-.13-.75-.51,0-.42.47-.54.8-.54.81,0,1.53.34,2.16.77l1.01-2.62c-1.01-.61-2.08-.9-3.25-.9-2.23,0-4.45,1.36-4.45,3.8,0,1.61,1.23,2.46,2.68,2.73l.75.14c.34.07.83.1.83.57s-.59.61-.95.61c-.86,0-1.67-.42-2.32-.94l-.19-.15-1.14,2.9c1.16.59,2.66.94,3.94.94,2.22,0,4.45-1.21,4.45-3.67,0-1.75-1.14-2.59-2.72-2.94M141.3,115.14l-.84-.18c-.29-.07-.75-.13-.75-.51,0-.42.47-.54.81-.54.81,0,1.53.34,2.16.77l1.01-2.62c-1.01-.61-2.08-.9-3.26-.9-2.23,0-4.45,1.36-4.45,3.8,0,1.61,1.23,2.46,2.68,2.73l.75.14c.34.07.83.1.83.57s-.59.61-.95.61c-.86,0-1.67-.42-2.32-.94l-.2-.15-1.14,2.9c1.16.59,2.66.94,3.95.94,2.22,0,4.45-1.21,4.45-3.67,0-1.75-1.14-2.59-2.72-2.94M130.77,121.59h3.73v-10.27h-3.73s0,10.27,0,10.27ZM129.7,111.31h-4.07l-1.79,3.3c-.21.37-.44.73-.52,1.16h-.08l.08-4.45h-3.64v10.27h3.64l-.08-4.3h.08c.08.42.4.8.62,1.2l1.77,3.11h4.32l-3.55-5.27,3.21-5h0v-.02ZM114.76,115.14l-.84-.18c-.29-.07-.75-.13-.75-.51,0-.42.47-.54.81-.54.8,0,1.53.34,2.16.77l1.01-2.62c-1.01-.61-2.08-.9-3.26-.9-2.23,0-4.45,1.36-4.45,3.8,0,1.61,1.23,2.46,2.68,2.73l.75.14c.34.07.83.1.83.57s-.59.61-.95.61c-.86,0-1.67-.42-2.32-.94l-.19-.15-1.14,2.9c1.16.59,2.66.94,3.94.94,2.22,0,4.45-1.21,4.45-3.67,0-1.75-1.14-2.59-2.72-2.94M105.82,115.14l-.84-.18c-.29-.07-.75-.13-.75-.51,0-.42.47-.54.81-.54.8,0,1.53.34,2.16.77l1.01-2.62c-1.01-.61-2.08-.9-3.25-.9-2.23,0-4.45,1.36-4.45,3.8,0,1.61,1.23,2.46,2.68,2.73l.75.14c.34.07.83.1.83.57s-.59.61-.95.61c-.86,0-1.67-.42-2.32-.94l-.2-.15-1.14,2.9c1.16.59,2.66.94,3.95.94,2.22,0,4.45-1.21,4.45-3.67,0-1.75-1.14-2.59-2.72-2.94M95.28,121.59h3.73v-10.27h-3.73s0,10.27,0,10.27ZM90.99,116.32l3.55,5.27h-4.34l-1.77-3.11c-.22-.39-.54-.77-.62-1.2h-.08l.08,4.3h-3.64v-10.27h3.64l-.08,4.45h.08c.08-.43.31-.79.52-1.16l1.79-3.3h4.07l-3.21,5h.01v.02Z"/>
          <g>
            <path class="st4" d="M110.05,85.06c-.37,0-.69.06-1.01.16l-.86,4.1c-.03.17-.25.28-.45.28-.28,0-1.12,0-1.08-.24l.96-4.6c.13-.64,1.53-1.05,2.71-1.05.22,0,.44,0,.67.06.16.03.19.21.1.39-.12.24-.42.97-.65.95-.15-.02-.28-.03-.4-.03h0v-.02Z"/>
            <path class="st4" d="M115.03,88.63c-.19.89-2.53.95-3.15.95-1.31,0-1.48-.69-1.24-1.82.2-.95.53-1.84,1.99-1.84.52,0,.99.07,1.41.15.08-.57,0-1.03-.52-1.03-.16,0-.3,0-.62.06l-.65.09c-.22.03-.23-.67-.24-.91,0-.18.08-.37.27-.39l.53-.1c.34-.07.62-.07.98-.08,1.53,0,2.09.82,1.8,2.19l-.58,2.75h.01v-.02ZM113.59,88.22l.17-.86c-.07-.02-.45-.07-.96-.07-.36,0-.5-.07-.62.4-.08.31-.08.52.12.52h1.3-.01Z"/>
            <path class="st4" d="M120.72,88.63c-.05.23-.19.37-.38.46-.84.42-2.16.49-2.76.49-1.62,0-1.41-1.02-1.16-2.16l.34-1.58c.22-1.12.44-2.14,2.05-2.14.53,0,.98.1,1.39.22l.51-2.45c.05-.23.9-.24,1.18-.24.21,0,.37.1.34.28l-1.48,7.12h-.03ZM119.95,85.08s-.57-.05-1.3-.05c-.2,0-.27.3-.35.71l-.3,1.42c-.12.58-.23,1.04,0,1.04h1.27l.65-3.13h.03Z"/>
            <path class="st4" d="M124.72,88.9c.02.18-.03.35-.22.4-.46.16-.94.29-1.35.29-.72,0-1.2-.37-.95-1.56l.86-4.12c.05-.23.9-.24,1.18-.24.21,0,.37.1.34.28l-.77,3.72c-.06.25-.07.46.07.46.07,0,.15.02.56-.12.22-.07.28.64.31.88h-.03ZM123.56,81.52c.05-.23.9-.24,1.18-.24.21,0,.37.1.34.28l-.3,1.43c-.03.17-.25.28-.45.28-.28,0-1.12,0-1.08-.24l.31-1.5h0Z"/>
            <path class="st4" d="M125.81,85.87c.3-1.42,1.17-2.17,2.76-2.17s2.15.76,1.85,2.17l-.31,1.53c-.3,1.42-1.17,2.17-2.76,2.17s-2.15-.76-1.85-2.17l.31-1.53ZM127.07,87.14c-.14.67-.13,1.09.56,1.09s.87-.42,1.01-1.09l.21-1.01c.14-.67.13-1.09-.56-1.09s-.87.42-1.01,1.09l-.21,1.01Z"/>
          </g>
        </g>
        <path class="st5" d="M161.18,91.2c0-.42-.12-1.62-.75-2.83-.97-1.86-2.78-2.89-5.08-2.89h-19.98v2.49h19.98c1.39,0,2.32.51,2.88,1.55.45.87.47,1.78.47,1.79v50.28c0,1.39-.51,2.32-1.55,2.88-.87.45-1.78.47-1.79.47h-73.54c-1.39,0-2.32-.51-2.88-1.55-.45-.87-.47-1.78-.47-1.79v-50.28c0-1.39.51-2.32,1.55-2.88.86-.44,1.75-.47,1.79-.47h20.48v-2.49h-20.52c-.25,0-1.58.07-2.9.75-1.86.97-2.89,2.78-2.89,5.08v50.32c0,.25.07,1.58.75,2.89.97,1.86,2.78,2.89,5.08,2.89h73.64c.4,0,1.62-.1,2.84-.75,1.86-.97,2.89-2.78,2.89-5.08v-50.39h0Z"/>
        <path class="st5" d="M138.43,123.45l5.24,7.83h-6.96l-5.21-7.83h-3.56v2.49l.13,9.08h-18.99l.15-11.56h-3.68l-1.5,2.49-3.24,5.34h-7.31l3.58-5.34,1.67-2.49h-2.98l-6.9,10.31h13.36l4.24-7.01h.28l-.14,10.73h23.99l-.14-10.73h.28l4.66,7.01h12.94l-6.9-10.31h-3.01ZM95.75,109.45l-6.9-10.31h13.36l4.24,7.01h.28l-.14-10.73h23.99l-.14,10.73h.28l4.66-7.01h12.94l-6.9,10.31h-2.98l5.24-7.83h-6.96l-5.21,7.83h-3.56v-2.49l.13-9.08h-18.99l.15,11.56h-3.68l-1.5-2.49-3.24-5.34h-7.31l3.58,5.34,1.67,2.49h-3.01Z"/>
      </g>
      <g>
        <g>
          <path class="st10" d="M526.38,22.08l-.27-.06c-.09-.02-.24-.03-.24-.16,0-.14.15-.17.25-.17.25,0,.49.1.68.24l.32-.83c-.32-.2-.66-.29-1.03-.29-.71,0-1.41.43-1.41,1.2,0,.51.39.79.86.87l.24.05c.1.02.27.03.27.19s-.18.2-.3.2c-.28,0-.53-.14-.74-.3l-.06-.05-.36.93c.37.19.84.3,1.25.3.71,0,1.41-.38,1.41-1.17,0-.56-.36-.82-.87-.94M523.53,22.08l-.27-.06c-.09-.02-.24-.03-.24-.16,0-.14.15-.17.25-.17.25,0,.49.1.68.24l.32-.83c-.32-.2-.66-.29-1.03-.29-.71,0-1.41.43-1.41,1.2,0,.51.39.79.86.87l.24.05c.1.02.27.03.27.19s-.18.2-.3.2c-.28,0-.53-.14-.74-.3l-.06-.05-.36.93c.37.19.84.3,1.26.3.71,0,1.41-.38,1.41-1.17,0-.56-.36-.82-.87-.94M520.19,24.12h1.18v-3.26h-1.18v3.26ZM519.84,20.86h-1.3l-.57,1.05c-.07.12-.14.23-.16.37h-.02l.02-1.41h-1.16v3.26h1.16l-.02-1.36h.02c.02.14.13.25.2.38l.57.98h1.38l-1.13-1.68,1.02-1.58h-.01ZM515.09,22.08l-.27-.06c-.09-.02-.24-.03-.24-.16,0-.14.15-.17.25-.17.25,0,.49.1.68.24l.32-.83c-.32-.2-.66-.29-1.03-.29-.71,0-1.41.43-1.41,1.2,0,.51.39.79.86.87l.24.05c.1.02.27.03.27.19s-.18.2-.3.2c-.28,0-.53-.14-.74-.3l-.06-.05-.36.93c.37.19.84.3,1.25.3.71,0,1.41-.38,1.41-1.17,0-.56-.36-.82-.87-.94M512.26,22.08l-.27-.06c-.09-.02-.24-.03-.24-.16,0-.14.15-.17.25-.17.25,0,.49.1.68.24l.32-.83c-.32-.2-.66-.29-1.03-.29-.71,0-1.41.43-1.41,1.2,0,.51.39.79.86.87l.24.05c.1.02.27.03.27.19s-.18.2-.3.2c-.28,0-.53-.14-.74-.3l-.06-.05-.36.93c.37.19.84.3,1.26.3.71,0,1.41-.38,1.41-1.17,0-.56-.36-.82-.87-.94M508.9,24.12h1.19v-3.26h-1.19v3.26ZM507.54,22.46l1.13,1.68h-1.38l-.57-.98c-.07-.13-.17-.24-.2-.38h-.02l.02,1.36h-1.16v-3.26h1.16l-.02,1.41h.02c.02-.14.1-.25.16-.37l.57-1.05h1.3l-1.02,1.58h.01Z"/>
          <g>
            <path class="st10" d="M513.6,12.53c-.12,0-.22.01-.32.05l-.27,1.31s-.08.09-.15.09c-.09,0-.36,0-.35-.08l.3-1.47c.05-.2.49-.34.86-.34.07,0,.14,0,.22.01.06,0,.06.07.03.13-.03.08-.13.31-.21.3h-.13.02Z"/>
            <path class="st10" d="M515.18,13.66c-.06.28-.81.3-1.01.3-.42,0-.47-.22-.39-.58.06-.3.17-.58.64-.58.16,0,.31.02.45.05.02-.19,0-.32-.16-.32-.05,0-.09,0-.2.01l-.21.03c-.07,0-.07-.21-.08-.29,0-.06.02-.12.08-.13l.17-.03c.1-.02.2-.02.31-.02.49,0,.66.27.58.69l-.18.87h0ZM514.72,13.53l.06-.28s-.14-.02-.3-.02c-.12,0-.16-.02-.2.13-.02.1-.02.16.03.16h.41Z"/>
            <path class="st10" d="M516.99,13.66c-.01.07-.06.12-.13.15-.27.14-.68.15-.88.15-.52,0-.45-.32-.37-.68l.1-.51c.07-.36.14-.68.65-.68.17,0,.31.03.44.07l.16-.77c.01-.07.29-.08.37-.08.07,0,.12.03.1.09l-.47,2.27h.03ZM516.74,12.53s-.18-.01-.4-.01c-.06,0-.08.09-.12.22l-.09.45c-.03.19-.07.34,0,.34h.4l.21-.99h0Z"/>
            <path class="st10" d="M518.26,13.74c0,.06-.01.1-.07.13-.15.05-.3.09-.43.09-.23,0-.38-.12-.3-.5l.28-1.31c.01-.07.29-.08.37-.08.07,0,.12.03.1.09l-.24,1.18c-.01.08-.02.15.02.15.02,0,.05,0,.17-.03.07-.02.09.2.1.28h-.01,0ZM517.89,11.4c.01-.07.29-.08.37-.08.07,0,.12.03.1.09l-.09.46s-.08.09-.15.09c-.09,0-.36,0-.35-.08l.1-.47h.02Z"/>
            <path class="st10" d="M518.61,12.78c.09-.45.37-.69.88-.69s.68.24.59.69l-.1.49c-.09.45-.37.69-.88.69s-.68-.24-.59-.69l.1-.49h0ZM519.01,13.19c-.05.21-.05.35.17.35s.28-.13.32-.35l.07-.32c.05-.21.05-.35-.17-.35s-.28.14-.32.35l-.07.32h0Z"/>
          </g>
        </g>
        <path class="st5" d="M529.84,14.47c0-.13-.03-.51-.24-.9-.31-.59-.88-.91-1.62-.91h-6.35v.79h6.35c.44,0,.74.16.91.5.14.28.15.57.15.57v15.98c0,.44-.16.74-.5.91-.28.14-.57.15-.57.15h-23.37c-.44,0-.74-.16-.91-.5-.14-.28-.15-.57-.15-.57v-15.99c0-.44.16-.74.5-.91.27-.14.56-.15.57-.15h6.51v-.79h-6.52c-.08,0-.51.02-.93.24-.59.31-.91.88-.91,1.62v15.98h0c0,.09.02.51.24.94.31.59.88.91,1.62.91h23.4c.13,0,.51-.03.9-.24.59-.31.91-.88.91-1.62v-16h0Z"/>
        <path class="st5" d="M522.62,24.73l1.67,2.49h-2.21l-1.65-2.49h-1.13v.79l.05,2.88h-6.04l.05-3.68h-1.17l-.47.79-1.03,1.7h-2.32l1.13-1.7.53-.79h-.95l-2.2,3.27h4.24l1.35-2.22h.09l-.05,3.41h7.62l-.05-3.41h.09l1.48,2.22h4.12l-2.2-3.27h-.96.01ZM509.05,20.27l-2.2-3.27h4.24l1.35,2.22h.09l-.05-3.41h7.62l-.05,3.41h.09l1.48-2.22h4.12l-2.2,3.27h-.95l1.67-2.49h-2.21l-1.65,2.49h-1.13v-.79l.05-2.88h-6.04l.05,3.68h-1.17l-.47-.79-1.03-1.7h-2.32l1.13,1.7.53.79h-.96.01Z"/>
      </g>
      <g id="qgMym8">
        <g>
          <polygon class="st4" points="63.16 122.94 63.17 127.23 24.52 127.23 24.53 122.94 63.16 122.94"/>
          <polygon class="st4" points="63.16 75.58 63.16 79.51 24.53 79.51 24.52 75.58 63.16 75.58"/>
          <polygon class="st4" points="63.16 158.09 63.17 161.91 24.52 161.91 24.53 158.09 63.16 158.09"/>
          <polygon class="st4" points="63.13 129.14 63.16 132.38 24.52 132.38 24.53 129.14 63.13 129.14"/>
          <polygon class="st4" points="63.15 55.42 63.17 58.64 24.54 58.64 24.53 55.42 63.15 55.42"/>
          <polygon class="st4" points="63.15 110.3 63.16 113.07 24.53 113.07 24.53 110.3 63.15 110.3"/>
          <polygon class="st4" points="63.15 66.07 63.16 68.69 24.53 68.69 24.53 66.07 63.15 66.07"/>
          <polygon class="st4" points="63.15 100.53 63.16 103.16 24.53 103.16 24.53 100.53 63.15 100.53"/>
          <polygon class="st4" points="63.12 153.4 63.16 156.02 24.54 156.02 24.53 153.4 63.12 153.4"/>
          <polygon class="st4" points="63.12 139.8 63.16 142.41 24.53 142.41 24.53 139.8 63.12 139.8"/>
          <polygon class="st4" points="63.12 85.15 63.16 87.78 24.55 87.79 24.53 85.16 63.12 85.15"/>
          <rect class="st4" x="24.53" y="170.71" width="38.63" height="2.23"/>
          <polygon class="st4" points="63.17 148.59 63.16 150.48 24.54 150.48 24.54 148.59 63.17 148.59"/>
          <polygon class="st4" points="63.14 95.7 63.16 97.63 24.53 97.63 24.53 95.7 63.14 95.7"/>
          <path class="st4" d="M63.13,165.78c.06.51.06,1.03.02,1.55H24.56c-.03-.52-.03-1.04,0-1.55h38.57,0,0Z"/>
          <rect class="st4" x="23.81" y="60.1" width="38.62" height="1.45"/>
          <polygon class="st4" points="63.13 118.8 63.15 120.11 24.56 120.11 24.54 118.8 63.13 118.8"/>
          <polygon class="st4" points="63.14 105.24 63.15 106.48 24.54 106.48 24.53 105.24 63.14 105.24"/>
          <path class="st4" d="M63.12,90.36c.06.4.06.82.03,1.24H24.53v-1.24h38.59Z"/>
          <polygon class="st4" points="63.15 71.51 63.16 72.76 24.53 72.76 24.54 71.51 63.15 71.51"/>
          <rect class="st4" x="23.63" y="143.48" width="38.62" height="1.2"/>
          <polygon class="st4" points="63.15 115.28 63.15 116.44 24.58 116.44 24.54 115.28 63.15 115.28"/>
          <polygon class="st4" points="63.15 168.06 63.15 168.92 24.54 168.92 24.55 168.06 63.15 168.06"/>
          <path class="st4" d="M63.12,136.08c.07.27.07.53,0,.81H24.58v-.81h38.54Z"/>
          <polygon class="st4" points="63.15 81.94 63.15 82.71 24.54 82.71 24.54 81.94 63.15 81.94"/>
          <path class="st4" d="M63.09,92.94c.09.29.09.53.02.77H24.56c-.06-.27-.06-.52,0-.77h38.53Z"/>
          <path class="st4" d="M63.08,147.05c.1.23.1.47.06.77H24.6c-.09-.24-.09-.51-.02-.77h38.52-.02Z"/>
          <path class="st4" d="M63.1,63.69c.07.27.07.47.05.72H24.55v-.72h38.55Z"/>
          <rect class="st4" x="24.55" y="163.43" width="38.6" height=".51"/>
        </g>
      </g>
      <path class="st10" d="M479.49,212.88l-.86.31s-.2,0-.23-.05c-.05-.03-.1-.2-.08-.24l.32-.87-3.3-1.91.61-.62c.17-.17.4-.2.65-.13l3.15.86c.64-.86,1.11-1.69,1.82-2.42l2.59-2.64-8.58-4.95.96-.96c.09-.09.37-.08.5-.05l6.52,1.82c.34-.32.65-.66,1.02-.96.25-.21.69-.05.9.14.23.22.43.57.27.91-.06.13-.22.27-.35.43l1.83.51,1.14-1.18,2.09-2.09c.74-.74,2.69-1.36,3.18-.95s-.13,2.35-.93,3.2c-.67.73-1.36,1.38-2.07,2.06l-1.2,1.18.51,1.83c.15-.15.32-.32.46-.37.36-.12.67.06.88.29.18.21.37.66.14.9l-.97.99,1.83,6.59c.05.15-.01.42-.1.5l-.91.9-4.95-8.58-2.47,2.45-.52.46-2.06,1.5.88,3.2c.05.16.03.39-.08.51l-.68.68-1.91-3.28h.01v.03Z"/>
      <g class="st7">
        <g>
          <g>
            <path class="st10" d="M25.57,216.38h-8.23l7.45-21.41h8.6l7.64,21.41h-8.23l-.71-2.67h-5.87l-.62,2.67h-.03ZM30.72,208.63l-.91-3.78c-.23-.91-.37-1.85-.51-2.75h-.29l-1.42,6.53h3.13Z"/>
            <path class="st10" d="M42.7,194.97h7.78v21.41h-7.78v-21.41Z"/>
            <path class="st10" d="M54.08,194.97h9.4c4.83,0,8.92,2.05,8.92,7.45,0,3.24-1.25,4.6-4.15,5.56v.17c.39.31.88.66,1.31,1.28l4.66,6.96h-8.97l-3.41-6.87h-.14v6.87h-7.61v-21.41h0ZM61.7,204.45h.54c1.28,0,2.56-.2,2.56-1.79s-1.17-1.85-2.5-1.85h-.6v3.63h0Z"/>
            <path class="st10" d="M75.59,194.97h7.78v14.55h6.53v6.87h-14.32v-21.41h.01Z"/>
            <path class="st10" d="M92.09,194.97h7.78v21.41h-7.78v-21.41Z"/>
            <path class="st10" d="M103.37,194.97h7.47l6.98,11.88h.23c-.31-1.79-.65-3.63-.65-5.46v-6.42h7.45v21.41h-7.45l-6.85-11.25h-.23c.25,1.48.49,2.87.49,4.29v6.96h-7.45v-21.41h0Z"/>
            <path class="st10" d="M128.13,194.97h14.4v5.85h-6.56v2.05h5.99v5.56h-5.99v2.1h6.79v5.85h-14.63v-21.41h0Z"/>
            <path class="st10" d="M147.25,208.72l.39.31c1.39,1.08,3.06,1.95,4.86,1.95.76,0,1.99-.31,1.99-1.28s-1.02-1.05-1.73-1.19l-1.56-.29c-3.04-.54-5.6-2.32-5.6-5.68,0-5.09,4.63-7.92,9.29-7.92,2.44,0,4.68.6,6.79,1.87l-2.1,5.48c-1.33-.91-2.84-1.62-4.52-1.62-.68,0-1.68.25-1.68,1.13,0,.8.97.91,1.56,1.05l1.76.39c3.3.74,5.68,2.5,5.68,6.14,0,5.11-4.66,7.64-9.29,7.64-2.69,0-5.83-.74-8.23-1.95l2.38-6.05h.02v.02Z"/>
          </g>
          <g>
            <path class="st5" d="M167.66,194.97h7.59l-.17,9.29h.17c.17-.88.66-1.64,1.08-2.42l3.75-6.87h8.49l-6.71,10.43,7.41,11h-9.03l-3.69-6.48c-.45-.82-1.13-1.62-1.31-2.5h-.17l.17,8.97h-7.59v-21.41h0Z"/>
            <path class="st5" d="M190.97,194.97h7.78v21.41h-7.78v-21.41Z"/>
            <path class="st5" d="M203.64,208.72l.39.31c1.39,1.08,3.06,1.95,4.86,1.95.76,0,1.99-.31,1.99-1.28s-1.02-1.05-1.73-1.19l-1.56-.29c-3.04-.54-5.6-2.32-5.6-5.68,0-5.09,4.63-7.92,9.29-7.92,2.44,0,4.68.6,6.79,1.87l-2.1,5.48c-1.33-.91-2.84-1.62-4.52-1.62-.68,0-1.68.25-1.68,1.13,0,.8.97.91,1.56,1.05l1.76.39c3.3.74,5.68,2.5,5.68,6.14,0,5.11-4.66,7.64-9.29,7.64-2.69,0-5.83-.74-8.23-1.95l2.38-6.05h.02v.02Z"/>
            <path class="st5" d="M222.47,208.72l.39.31c1.39,1.08,3.06,1.95,4.86,1.95.76,0,1.99-.31,1.99-1.28s-1.02-1.05-1.73-1.19l-1.56-.29c-3.04-.54-5.6-2.32-5.6-5.68,0-5.09,4.63-7.92,9.29-7.92,2.44,0,4.68.6,6.79,1.87l-2.1,5.48c-1.33-.91-2.84-1.62-4.52-1.62-.68,0-1.68.25-1.68,1.13,0,.8.97.91,1.56,1.05l1.76.39c3.3.74,5.68,2.5,5.68,6.14,0,5.11-4.66,7.64-9.29,7.64-2.69,0-5.83-.74-8.23-1.95l2.38-6.05h.02v.02Z"/>
            <path class="st5" d="M240.08,194.97h7.59l-.17,9.29h.17c.17-.88.66-1.64,1.08-2.42l3.75-6.87h8.49l-6.71,10.43,7.41,11h-9.03l-3.69-6.48c-.45-.82-1.13-1.62-1.31-2.5h-.17l.17,8.97h-7.59v-21.41h0Z"/>
            <path class="st5" d="M263.39,194.97h7.78v21.41h-7.78v-21.41Z"/>
            <path class="st5" d="M276.06,208.72l.39.31c1.39,1.08,3.06,1.95,4.86,1.95.76,0,1.99-.31,1.99-1.28s-1.02-1.05-1.73-1.19l-1.56-.29c-3.04-.54-5.6-2.32-5.6-5.68,0-5.09,4.63-7.92,9.29-7.92,2.44,0,4.68.6,6.79,1.87l-2.1,5.48c-1.33-.91-2.84-1.62-4.52-1.62-.68,0-1.68.25-1.68,1.13,0,.8.97.91,1.56,1.05l1.76.39c3.3.74,5.68,2.5,5.68,6.14,0,5.11-4.66,7.64-9.29,7.64-2.69,0-5.83-.74-8.23-1.95l2.38-6.05h.02v.02Z"/>
            <path class="st5" d="M294.88,208.72l.39.31c1.39,1.08,3.06,1.95,4.86,1.95.76,0,1.99-.31,1.99-1.28s-1.02-1.05-1.73-1.19l-1.56-.29c-3.04-.54-5.6-2.32-5.6-5.68,0-5.09,4.63-7.92,9.29-7.92,2.44,0,4.68.6,6.79,1.87l-2.1,5.48c-1.33-.91-2.84-1.62-4.52-1.62-.68,0-1.68.25-1.68,1.13,0,.8.97.91,1.56,1.05l1.76.39c3.3.74,5.68,2.5,5.68,6.14,0,5.11-4.66,7.64-9.29,7.64-2.69,0-5.83-.74-8.23-1.95l2.38-6.05h.02v.02Z"/>
          </g>
          <g>
            <path class="st10" d="M320.64,216.38h-8.23l7.45-21.41h8.6l7.64,21.41h-8.23l-.71-2.67h-5.87l-.62,2.67h-.03ZM325.77,208.63l-.91-3.78c-.23-.91-.37-1.85-.51-2.75h-.29l-1.42,6.53h3.13Z"/>
            <path class="st10" d="M337.76,194.97h7.78v21.41h-7.78v-21.41Z"/>
            <path class="st10" d="M349.15,194.97h9.4c4.83,0,8.92,2.05,8.92,7.45,0,3.24-1.25,4.6-4.15,5.56v.17c.39.31.88.66,1.31,1.28l4.66,6.96h-8.97l-3.41-6.87h-.14v6.87h-7.61v-21.41h-.01ZM356.76,204.45h.54c1.28,0,2.56-.2,2.56-1.79s-1.17-1.85-2.5-1.85h-.6v3.63h0Z"/>
            <path class="st10" d="M370.65,194.97h7.78v14.55h6.53v6.87h-14.32v-21.41h.01Z"/>
            <path class="st10" d="M387.15,194.97h7.78v21.41h-7.78v-21.41Z"/>
            <path class="st10" d="M398.42,194.97h7.47l6.98,11.88h.23c-.31-1.79-.65-3.63-.65-5.46v-6.42h7.45v21.41h-7.45l-6.85-11.25h-.23c.25,1.48.49,2.87.49,4.29v6.96h-7.45v-21.41h.01Z"/>
            <path class="st10" d="M423.19,194.97h14.4v5.85h-6.56v2.05h5.99v5.56h-5.99v2.1h6.79v5.85h-14.63v-21.41h0Z"/>
            <path class="st10" d="M442.3,208.72l.39.31c1.39,1.08,3.06,1.95,4.86,1.95.76,0,1.99-.31,1.99-1.28s-1.02-1.05-1.73-1.19l-1.56-.29c-3.04-.54-5.6-2.32-5.6-5.68,0-5.09,4.63-7.92,9.29-7.92,2.44,0,4.68.6,6.79,1.87l-2.1,5.48c-1.33-.91-2.84-1.62-4.52-1.62-.68,0-1.68.25-1.68,1.13,0,.8.97.91,1.56,1.05l1.76.39c3.3.74,5.68,2.5,5.68,6.14,0,5.11-4.66,7.64-9.29,7.64-2.69,0-5.83-.74-8.23-1.95l2.38-6.05h.02v.02Z"/>
          </g>
        </g>
      </g>
    </g>
  </g>
  <g>
    <rect class="st13" x="495.95" y="108.23" width="19.89" height="67.54" transform="translate(-1.27 4.6) rotate(-.52)"/>
    <g>
      <path class="st10" d="M512.03,168.18c.15.37.22.81.22,1.3.01,1.92-1.11,2.97-3.1,2.99l-6.53.06c-1.99.02-3.13-1.02-3.16-2.94-.01-1.92,1.11-2.97,3.1-2.99l6.53-.06c.86,0,1.53.18,2.05.53.24-.14.28-.37.28-.73v-.3h1.77v.51c0,.73-.25,1.41-1.17,1.64h.01ZM509.24,168.49l-6.79.06c-.89,0-1.23.4-1.21,1.03,0,.62.35,1.01,1.24,1.01l6.79-.06c.89,0,1.23-.4,1.21-1.02,0-.62-.35-1.01-1.24-1.01h0Z"/>
      <path class="st10" d="M509.09,165.3l-9.48.08-.02-1.95,9.62-.09c.89,0,1.2-.38,1.2-1.01s-.32-.99-1.21-.98l-9.62.09v-1.88l9.47-.08c1.99-.02,3.13.97,3.16,2.88.01,1.92-1.11,2.93-3.1,2.94h-.02Z"/>
      <path class="st10" d="M499.53,156.69l-.02-2.65,12.41-2.14.02,1.95-2.46.38h.03l.02,2.22,2.44.34v1.82l-12.43-1.91h-.01ZM507.82,154.5l-6.14.93v.03l6.15.8v-1.76h-.01,0Z"/>
      <path class="st10" d="M499.47,151.09l-.02-2.45,7.42-1.97v-.03l-7.45.07v-1.75l12.42-.12.02,2.01-9.05,2.43v.03l9.08-.08v1.75l-12.42.12h0Z"/>
      <path class="st10" d="M501.17,141.96l.02,2.05h-1.78l-.06-6.02h1.78l.02,2.02,10.65-.09.02,1.95-10.65.09h-.01.01Z"/>
      <path class="st10" d="M508.82,137.18l-6.53.06c-1.99.02-3.13-1.02-3.16-2.94-.01-1.92,1.11-2.97,3.1-2.99l6.53-.06c1.99-.02,3.13,1.02,3.16,2.94.01,1.92-1.11,2.97-3.1,2.99ZM508.92,133.19l-6.79.06c-.89,0-1.23.4-1.21,1.02,0,.62.35,1.01,1.24,1.01l6.79-.06c.89,0,1.23-.4,1.21-1.03,0-.62-.35-1.01-1.24-1.01h0Z"/>
      <path class="st10" d="M508.74,127.42h-.71v-1.84h.84c.89-.01,1.2-.4,1.2-1.03s-.32-1.01-1.25-1.01c-1.03,0-1.69.4-2.79,1.7-1.42,1.64-2.43,2.19-3.85,2.2-1.95.02-3.1-.98-3.12-2.88-.01-1.9,1.11-2.86,3.1-2.87h.52v1.84h-.62c-.89.01-1.23.37-1.21.99,0,.62.35.97,1.2.97.9,0,1.56-.43,2.67-1.71,1.42-1.64,2.42-2.17,3.95-2.19,2.02-.02,3.17,1.01,3.19,2.91.01,1.92-1.11,2.89-3.1,2.9h-.03v.02Z"/>
      <path class="st10" d="M499.19,120.57l-.05-5.33h1.78l.03,3.35,3.28-.03-.02-2.68h1.78l.02,2.67,3.82-.03-.03-3.38h1.78l.05,5.31-12.43.12h-.01Z"/>
      <path class="st10" d="M499.13,114.12l-.02-1.95,12.43-.12.02,1.95-12.43.12Z"/>
    </g>
    <rect class="st5" x="492.7" y="54.73" width="23.32" height="51.54" transform="translate(-2.05 14.11) rotate(-1.6)"/>
    <g>
      <path class="st10" d="M496.53,101.31l-.07-2.56,13.96-.39-.12-4.21,2.32-.07.18,6.76-16.28.45h0v.02Z"/>
      <path class="st10" d="M508.73,93.24l-8.56.24c-2.6.07-4.13-1.26-4.2-3.77s1.38-3.93,3.99-4l8.56-.24c2.6-.07,4.13,1.26,4.21,3.77.07,2.51-1.38,3.93-3.99,4h-.01,0ZM508.75,88.02l-8.88.24c-1.17.03-1.6.56-1.57,1.38.02.81.47,1.32,1.64,1.28l8.88-.24c1.17-.03,1.6-.56,1.57-1.38-.02-.81-.47-1.32-1.64-1.28Z"/>
      <path class="st10" d="M508.57,83.9l-8.74.24c-2.51.07-4.04-1.19-4.1-3.65-.07-2.46,1.39-3.8,3.9-3.89l1.72-.05.07,2.42-1.88.06c-1.08.03-1.49.56-1.48,1.32.02.76.47,1.27,1.55,1.24l9.1-.25c1.08-.03,1.48-.56,1.46-1.32-.02-.76-.45-1.27-1.53-1.24l-2.49.07-.07-2.42,2.3-.07c2.51-.07,4.04,1.19,4.1,3.65.07,2.46-1.39,3.82-3.9,3.89h-.01,0Z"/>
      <path class="st10" d="M508.22,74.98l-8.56.24c-2.6.07-4.13-1.26-4.2-3.77s1.38-3.93,3.99-4l8.56-.24c2.6-.07,4.13,1.26,4.2,3.77s-1.38,3.93-3.99,4ZM508.25,69.76l-8.88.24c-1.17.03-1.6.56-1.57,1.38.02.81.47,1.32,1.64,1.28l8.88-.24c1.17-.03,1.6-.56,1.57-1.38-.02-.81-.47-1.32-1.64-1.28Z"/>
      <path class="st10" d="M506.49,63.75c-1.08.03-2.04-.2-3.48-1.16-1.67-1.1-2.67-1.36-3.9-1.33-1.17.03-1.6.51-1.57,1.33s.47,1.27,1.64,1.24l1.77-.05.07,2.42-1.61.05c-2.6.07-4.13-1.14-4.2-3.63s1.39-3.84,3.99-3.91c1.42-.03,2.61.37,4.32,1.57,1.38.96,2.17,1.26,2.99,1.25l.88-.02.06,2.23-.98.02h.02ZM509.31,63.8l-.07-2.46,2.46-.07.07,2.46-2.46.07Z"/>
    </g>
    <rect class="st13" x="520.62" y="57.23" width="19.89" height="69.33" transform="translate(-.81 4.82) rotate(-.52)"/>
    <g>
      <path class="st10" d="M525.91,121.43l.02,2.05h-1.78l-.06-6.02h1.78l.02,2.02,10.65-.09v1.95l-10.64.09h0Z"/>
      <path class="st10" d="M524.09,116.5v-1.95l12.42-.12v1.95l-12.42.12Z"/>
      <path class="st10" d="M524.02,108.74l-.02-2.65,12.41-2.14.02,1.95-2.46.38h.03l.02,2.22,2.44.34v1.82l-12.43-1.91h-.01ZM532.31,106.53l-6.14.93v.03l6.15.8v-1.76h-.01Z"/>
      <path class="st10" d="M533.45,103.43h-.71v-1.84h.84c.89-.01,1.2-.4,1.2-1.03s-.32-1.01-1.25-1.01c-1.03,0-1.69.4-2.79,1.7-1.42,1.64-2.43,2.19-3.85,2.2-1.95.02-3.1-.98-3.12-2.88-.01-1.9,1.11-2.86,3.1-2.87h.52v1.84h-.62c-.89.01-1.23.37-1.21.99,0,.62.35.97,1.2.97.9,0,1.56-.43,2.67-1.71,1.42-1.64,2.42-2.17,3.95-2.19,2.02-.02,3.17,1.01,3.19,2.91.02,1.92-1.11,2.89-3.1,2.9h-.03v.02Z"/>
      <path class="st10" d="M523.91,96.58l-.02-2.88c-.02-1.95,1.05-2.93,3.04-2.94h1.23c1.99-.03,3.08.93,3.1,2.88v.93l5.06-.05.02,1.95-12.43.12h0ZM529.47,93.65c0-.62-.29-.96-1.18-.95h-1.47c-.89.02-1.17.36-1.17.98v.93l3.83-.03v-.93h-.01Z"/>
      <path class="st10" d="M523.84,89.73l-.05-5.33h1.78l.03,3.35,3.28-.03-.02-2.68h1.78l.02,2.67,3.82-.03-.03-3.38h1.78l.05,5.31-12.43.12h-.01Z"/>
      <path class="st10" d="M525.55,81.74l.02,2.05h-1.78l-.06-6.02h1.78l.02,2.02,10.65-.09.02,1.95-10.65.09h-.01,0Z"/>
      <path class="st10" d="M525.49,75.09l.02,2.05h-1.78l-.06-6.02h1.78l.02,2.02,10.65-.09.02,1.95-10.65.09h-.01,0Z"/>
      <path class="st10" d="M523.66,69.49l-.02-2.65,12.41-2.14.02,1.95-2.46.38h.03l.02,2.22,2.44.34v1.82l-12.43-1.91h-.01ZM531.96,67.28l-6.14.93v.03l6.15.8v-1.76h-.01Z"/>
      <path class="st10" d="M528.79,63.67l-5.18.05-.02-1.95,5.18-.05,3.97.21v1.46l-3.94.29h0ZM534.16,63.59v-1.88h1.86v1.87h-1.86Z"/>
    </g>
    <rect class="st5" x="518.26" y="128.9" width="24.76" height="45.1" transform="translate(-3.95 14.6) rotate(-1.57)"/>
    <g>
      <path class="st10" d="M522.11,171.01l-.06-2.89,18.43-.34.06,2.89-18.43.34Z"/>
      <path class="st10" d="M522.02,165.96l-.08-4.37c-.06-3.01,1.32-4.31,4.16-4.37h.74c1.9-.05,3.09.51,3.64,1.79h.06c.5-1.56,1.85-2.2,3.8-2.23l1.58-.02c2.84-.05,4.39,1.42,4.45,4.31l.08,4.56-18.43.34h-.01.01ZM529.44,161.78c-.02-1.08-.51-1.73-1.98-1.7l-1.03.02c-1.32.02-1.88.49-1.87,1.51l.02,1.4,4.87-.09-.02-1.13h.01ZM537.72,161.11c-.02-.97-.47-1.49-1.84-1.47l-1.61.03c-1.71.03-2.23.59-2.21,1.91l.02,1.3,5.67-.1-.03-1.65h0v-.02Z"/>
      <path class="st10" d="M521.82,155.32l-.06-2.89,18.43-.34.06,2.89-18.43.34Z"/>
      <path class="st10" d="M537.58,150.55l-13.31-5.13.09,5.11-2.64.05-.15-8.21,2.58-.05,13.31,5.13-.09-5.37,2.64-.05.15,8.48-2.58.05h0Z"/>
      <path class="st10" d="M521.51,138.49l-.07-3.92,18.37-3.34.06,2.89-3.65.59h.06l.06,3.28,3.62.46.05,2.68-18.48-2.66h-.01v.02ZM533.78,135.11l-9.09,1.46v.06l9.13,1.1-.05-2.6h0v-.02Z"/>
    </g>
  </g>
</svg>