<?xml version="1.0" encoding="UTF-8"?>
<svg id="Livello_1" xmlns="http://www.w3.org/2000/svg" version="1.1" viewBox="0 0 378.05 160.72">
  <!-- Generator: Adobe Illustrator 30.6.0, SVG Export Plug-In . SVG Version: 2.1.4 Build 109)  -->
  <defs>
    <style>
      .st0 {
        fill: #1d1d1b;
      }

      .st1 {
        fill: #fff;
      }

      .st2 {
        fill: #0099cd;
      }
    </style>
  </defs>
  <rect class="st0" x=".28" y="12.37" width="210.21" height="61.91" transform="translate(-.39 .96) rotate(-.52)"/>
  <g>
    <path class="st1" d="M23.9,62.37c-1.16.45-2.54.69-4.03.7-5.97.05-9.26-3.45-9.32-9.64l-.18-20.34c-.06-6.19,3.17-9.76,9.14-9.81,5.97-.05,9.26,3.45,9.32,9.64l.18,20.34c.02,2.65-.57,4.76-1.66,6.37.45.77,1.17.87,2.27.86h.94s.05,5.52.05,5.52h-1.6c-2.27.04-4.37-.78-5.12-3.64ZM22.94,53.71l-.19-21.11c-.02-2.76-1.25-3.8-3.19-3.79-1.93.02-3.14,1.08-3.12,3.84l.19,21.11c.03,2.76,1.25,3.8,3.18,3.78,1.93-.02,3.14-1.08,3.12-3.84Z"/>
    <path class="st1" d="M32.88,53.23l-.27-29.52,6.08-.05.27,29.96c.02,2.76,1.2,3.75,3.13,3.73,1.93-.02,3.09-1.02,3.06-3.78l-.27-29.96,5.86-.05.27,29.52c.06,6.19-3.01,9.75-8.98,9.81-5.97.05-9.1-3.46-9.15-9.64Z"/>
    <path class="st1" d="M59.64,23.47l8.23-.07,6.65,38.63-6.08.06-1.18-7.67v.11s-6.91.06-6.91.06l-1.04,7.58-5.64.05,5.95-38.75ZM66.51,49.28l-2.88-19.1h-.11s-2.48,19.15-2.48,19.15l5.47-.05Z"/>
    <path class="st1" d="M77.1,23.31l7.63-.07,6.12,23.1h.11s-.21-23.16-.21-23.16l5.42-.05.35,38.69-6.25.06-7.55-28.18h-.11s.26,28.24.26,28.24l-5.42.05-.35-38.69Z"/>
    <path class="st1" d="M105.5,28.58l-6.36.06-.05-5.53,18.79-.17.05,5.53-6.36.06.3,33.16-6.08.06-.3-33.16Z"/>
    <path class="st1" d="M120.42,52.44l-.18-20.34c-.06-6.19,3.17-9.76,9.14-9.81,5.97-.05,9.26,3.45,9.32,9.64l.18,20.34c.06,6.19-3.17,9.76-9.14,9.81-5.97.05-9.26-3.45-9.32-9.64ZM132.8,52.71l-.19-21.11c-.02-2.76-1.25-3.8-3.18-3.79-1.93.02-3.14,1.08-3.12,3.84l.19,21.11c.03,2.76,1.25,3.8,3.19,3.78,1.93-.02,3.14-1.08,3.12-3.84Z"/>
    <path class="st1" d="M150.76,52.16l-.02-2.21,5.75-.05.02,2.65c.02,2.76,1.25,3.74,3.18,3.73,1.93-.02,3.14-1.02,3.12-3.9-.03-3.21-1.26-5.24-5.27-8.69-5.12-4.43-6.81-7.57-6.85-11.99-.06-6.08,3.06-9.64,8.98-9.7,5.91-.05,8.88,3.46,8.93,9.65v1.6s-5.73.05-5.73.05l-.02-1.99c-.02-2.76-1.14-3.8-3.07-3.79-1.93.02-3.03,1.08-3.01,3.73.03,2.82,1.31,4.85,5.33,8.3,5.13,4.43,6.76,7.51,6.8,12.32.06,6.3-3.12,9.87-9.09,9.92-5.97.05-8.99-3.46-9.04-9.64Z"/>
    <path class="st1" d="M172.1,22.45l16.58-.15.05,5.53-10.5.1.09,10.23,8.35-.08.05,5.53-8.35.08.11,11.88,10.5-.1.05,5.53-16.58.15-.35-38.69Z"/>
    <path class="st1" d="M192.16,22.27l6.08-.05.35,38.69-6.08.05-.35-38.69Z"/>
  </g>
  <rect class="st2" x="216.66" y="2.23" width="160.4" height="72.59" transform="translate(-.96 8.32) rotate(-1.6)"/>
  <g>
    <path class="st1" d="M232.03,14.15l7.96-.22,1.22,43.44,13.1-.37.2,7.24-21.07.59-1.42-50.68Z"/>
    <path class="st1" d="M257.15,52.14l-.75-26.64c-.23-8.11,3.91-12.86,11.73-13.08,7.82-.22,12.22,4.3,12.45,12.4l.75,26.64c.23,8.11-3.92,12.86-11.73,13.08-7.82.22-12.22-4.3-12.45-12.41ZM273.38,52.2l-.77-27.66c-.1-3.62-1.73-4.95-4.27-4.88-2.53.07-4.09,1.49-3.99,5.11l.77,27.66c.1,3.62,1.73,4.95,4.27,4.88,2.53-.07,4.09-1.49,3.99-5.11Z"/>
    <path class="st1" d="M286.2,51.62l-.76-27.22c-.22-7.82,3.71-12.57,11.38-12.78,7.67-.21,11.86,4.31,12.08,12.12l.15,5.36-7.53.21-.16-5.86c-.09-3.33-1.72-4.66-4.11-4.59-2.39.07-3.94,1.49-3.85,4.82l.79,28.31c.09,3.33,1.72,4.59,4.11,4.52,2.39-.07,3.95-1.42,3.85-4.74l-.22-7.75,7.53-.21.2,7.17c.22,7.82-3.71,12.57-11.38,12.78-7.67.21-11.86-4.3-12.08-12.12Z"/>
    <path class="st1" d="M313.99,50.55l-.75-26.64c-.23-8.11,3.91-12.86,11.73-13.08,7.82-.22,12.22,4.3,12.45,12.4l.75,26.64c.23,8.11-3.92,12.86-11.73,13.08s-12.22-4.3-12.45-12.41ZM330.22,50.61l-.77-27.66c-.1-3.62-1.73-4.95-4.27-4.88-2.53.07-4.09,1.49-3.99,5.11l.77,27.66c.1,3.62,1.73,4.95,4.27,4.88,2.53-.07,4.09-1.49,3.99-5.11Z"/>
    <path class="st1" d="M348.91,45.15c-.09-3.33.62-6.32,3.61-10.82,3.41-5.17,4.26-8.31,4.15-12.14-.1-3.62-1.59-4.95-4.12-4.88-2.53.07-3.94,1.49-3.84,5.11l.15,5.5-7.53.21-.14-5c-.23-8.11,3.55-12.85,11.3-13.07,7.75-.22,11.93,4.3,12.16,12.41.12,4.42-1.15,8.15-4.91,13.47-3,4.29-3.94,6.78-3.87,9.31l.08,2.75-6.95.19-.08-3.04ZM348.8,53.93l7.67-.21.21,7.67-7.67.21-.21-7.67Z"/>
  </g>
  <rect class="st0" x="153.44" y="89.12" width="215.78" height="61.91" transform="translate(-1.08 2.38) rotate(-.52)"/>
  <g>
    <path class="st1" d="M169.43,105.6l-6.36.06-.05-5.53,18.79-.17.05,5.53-6.36.06.3,33.16-6.08.05-.3-33.16Z"/>
    <path class="st1" d="M184.74,99.93l6.08-.05.35,38.69-6.08.05-.35-38.69Z"/>
    <path class="st1" d="M208.89,99.71l8.23-.07,6.65,38.63-6.08.06-1.18-7.67v.11s-6.91.06-6.91.06l-1.04,7.58-5.64.05,5.95-38.75ZM215.76,125.52l-2.88-19.1h-.11s-2.48,19.15-2.48,19.15l5.47-.05Z"/>
    <path class="st1" d="M225.41,129.08l-.02-2.21,5.75-.05.02,2.65c.03,2.76,1.25,3.75,3.19,3.73,1.93-.02,3.14-1.02,3.12-3.9-.03-3.2-1.26-5.24-5.27-8.68-5.12-4.43-6.81-7.57-6.85-11.99-.06-6.08,3.06-9.64,8.98-9.7,5.91-.05,8.88,3.46,8.93,9.65v1.6s-5.73.05-5.73.05l-.02-1.99c-.03-2.76-1.14-3.8-3.07-3.79-1.93.02-3.03,1.08-3.01,3.73.03,2.82,1.32,4.85,5.33,8.3,5.13,4.43,6.76,7.51,6.8,12.32.06,6.3-3.12,9.87-9.09,9.92-5.97.06-8.99-3.46-9.04-9.64Z"/>
    <path class="st1" d="M246.75,99.37l8.95-.08c6.08-.06,9.1,3.29,9.15,9.48l.03,3.81c.06,6.19-2.9,9.59-8.98,9.64l-2.87.03.14,15.75-6.08.06-.35-38.69ZM255.86,116.7c1.93-.02,2.98-.91,2.95-3.68l-.04-4.59c-.02-2.76-1.08-3.64-3.02-3.62l-2.87.03.11,11.88,2.87-.03Z"/>
    <path class="st1" d="M268.08,99.18l16.58-.15.05,5.53-10.5.1.09,10.23,8.35-.08.05,5.53-8.35.08.11,11.88,10.5-.1.05,5.53-16.58.15-.35-38.69Z"/>
    <path class="st1" d="M292.94,104.48l-6.36.06-.05-5.53,18.79-.17.05,5.53-6.36.06.3,33.16-6.08.06-.3-33.16Z"/>
    <path class="st1" d="M313.61,104.29l-6.36.06-.05-5.53,18.79-.17.05,5.53-6.36.06.3,33.16-6.08.06-.3-33.16Z"/>
    <path class="st1" d="M331.08,98.61l8.23-.07,6.65,38.63-6.08.06-1.17-7.67v.11s-6.91.06-6.91.06l-1.04,7.58-5.64.05,5.95-38.75ZM337.95,124.41l-2.88-19.1h-.11s-2.48,19.15-2.48,19.15l5.47-.05Z"/>
    <path class="st1" d="M349.18,114.58l-.15-16.14,6.08-.06.15,16.14-.66,12.33-4.53.04-.89-12.32ZM349.45,131.27l5.86-.05.05,5.86-5.86.05-.05-5.86Z"/>
  </g>
  <rect class="st2" x="5.77" y="81.78" width="140.36" height="77.03" transform="translate(-3.27 2.12) rotate(-1.57)"/>
  <g>
    <path class="st1" d="M15.11,93.75l9.01-.17,1.05,57.36-9.01.17-1.05-57.36Z"/>
    <path class="st1" d="M30.84,93.46l13.6-.25c9.34-.17,13.43,4.1,13.6,12.95l.04,2.29c.11,5.9-1.63,9.62-5.61,11.33v.16c4.87,1.55,6.83,5.77,6.94,11.84l.09,4.92c.16,8.85-4.42,13.69-13.43,13.85l-14.18.26-1.05-57.36ZM43.81,116.59c3.36-.06,5.38-1.57,5.3-6.16l-.06-3.2c-.07-4.09-1.5-5.87-4.7-5.81l-4.34.08.28,15.16,3.52-.06ZM45.92,142.37c3.03-.06,4.64-1.48,4.57-5.74l-.09-5c-.1-5.33-1.85-6.93-5.95-6.86l-4.02.07.32,17.62,5.16-.09Z"/>
    <path class="st1" d="M63.95,92.86l9.01-.16,1.05,57.36-9.01.16-1.05-57.36Z"/>
    <path class="st1" d="M78.78,141.93l15.96-41.44-15.9.29-.15-8.19,25.56-.47.15,8.03-15.96,41.44,16.71-.31.15,8.19-26.38.48-.15-8.03Z"/>
    <path class="st1" d="M116.31,91.9l12.21-.22,10.39,57.18-9.01.16-1.85-11.36v.16s-10.24.19-10.24.19l-1.43,11.25-8.36.15,8.29-57.53ZM126.84,130.07l-4.54-28.28h-.16s-3.41,28.42-3.41,28.42l8.11-.15Z"/>
  </g>
</svg>