<svg xmlns="http://www.w3.org/2000/svg" xmlns:xlink="http://www.w3.org/1999/xlink" width="193" zoomAndPan="magnify" viewBox="0 0 144.75 144.749998" height="193" preserveAspectRatio="xMidYMid meet" version="1.0"><defs><clipPath id="754dbf6996"><path d="M 0 0 L 144.5 0 L 144.5 144.5 L 0 144.5 Z M 0 0 " clip-rule="nonzero"/></clipPath></defs><g clip-path="url(#754dbf6996)"><path fill="#ffffff" d="M 0 0 L 144.5 0 L 144.5 144.5 L 0 144.5 Z M 0 0 " fill-opacity="1" fill-rule="evenodd"/></g><path fill="#ca3132" d="M 93.546875 49.242188 C 88.261719 47.429688 87 50.035156 85.558594 50.035156 C 82.570312 50.035156 81.71875 48.703125 79.925781 48.617188 C 77.960938 48.527344 73.171875 49.863281 71.996094 55.816406 C 71.425781 52.714844 70.109375 50.070312 67.699219 49.242188 C 62.4375 47.429688 61.179688 50.035156 59.746094 50.035156 C 56.769531 50.035156 55.917969 48.703125 54.140625 48.617188 C 51.734375 48.503906 45.097656 50.542969 46.070312 60.617188 C 47.042969 70.691406 53.851562 76.355469 59.003906 76.242188 C 64.152344 76.128906 69.816406 71.484375 71.417969 66.503906 C 71.746094 65.488281 72.003906 64.242188 72.160156 62.890625 C 73.859375 71.539062 80.042969 76.34375 84.8125 76.242188 C 89.984375 76.128906 95.675781 71.484375 97.285156 66.503906 C 98.890625 61.523438 98.835938 51.050781 93.546875 49.242188 Z M 70.070312 57.730469 C 69.84375 58.808594 68.484375 60.222656 67.242188 59.371094 C 65.996094 58.523438 66.390625 56.882812 65.371094 55.804688 C 64.351562 54.730469 63.164062 54.730469 62.824219 53.824219 C 62.484375 52.917969 62.9375 51.957031 62.9375 51.957031 C 63.84375 50.710938 66.109375 50.089844 68.257812 52.75 C 70.410156 55.410156 70.296875 56.65625 70.070312 57.730469 Z M 95.542969 57.675781 C 95.3125 58.75 93.957031 60.164062 92.710938 59.316406 C 91.46875 58.46875 91.863281 56.824219 90.84375 55.75 C 89.824219 54.675781 88.636719 54.675781 88.296875 53.769531 C 87.957031 52.863281 88.410156 51.902344 88.410156 51.902344 C 89.316406 50.65625 91.582031 50.035156 93.730469 52.695312 C 95.878906 55.355469 95.769531 56.597656 95.542969 57.675781 Z M 95.542969 57.675781 " fill-opacity="1" fill-rule="evenodd"/><path fill="#43a756" d="M 85.636719 38.636719 C 92.371094 38.296875 99.277344 30.710938 99.277344 30.710938 C 99.277344 30.710938 93.109375 22.730469 85.972656 22.84375 C 80.976562 22.925781 75.871094 25.976562 73.066406 27.992188 L 73.066406 22.867188 L 71.261719 22.867188 L 71.261719 27.871094 C 68.421875 25.855469 63.417969 22.921875 58.523438 22.84375 C 51.390625 22.730469 45.21875 30.710938 45.21875 30.710938 C 45.21875 30.710938 52.125 38.296875 58.863281 38.636719 C 60.671875 38.726562 62.613281 38.160156 64.472656 37.277344 C 64.042969 37.742188 63.625 38.214844 63.210938 38.695312 C 59.753906 42.738281 58.640625 48.660156 58.59375 48.910156 L 60.371094 49.234375 C 60.382812 49.179688 61.449219 43.535156 64.585938 39.867188 C 66.296875 37.867188 68.128906 36.109375 69.597656 34.695312 C 70.898438 33.445312 71.816406 32.566406 72.273438 31.894531 C 72.664062 32.589844 73.636719 33.523438 75.089844 34.921875 C 76.5625 36.332031 78.394531 38.09375 80.105469 40.09375 C 83.242188 43.761719 84.304688 49.40625 84.316406 49.460938 L 86.09375 49.136719 C 86.050781 48.886719 84.9375 42.964844 81.476562 38.921875 C 80.996094 38.359375 80.5 37.804688 79.992188 37.265625 C 81.863281 38.15625 83.816406 38.730469 85.636719 38.636719 Z M 72.375 31.734375 L 72.390625 31.75 L 72.355469 31.769531 C 72.363281 31.757812 72.367188 31.746094 72.375 31.734375 Z M 72.375 31.734375 " fill-opacity="1" fill-rule="evenodd"/><path fill="#ca3132" d="M 82.101562 86.332031 L 63.359375 86.332031 C 60.632812 86.332031 60.371094 90 60.371094 90 L 60.371094 113.117188 C 60.371094 115.808594 63.304688 117.226562 63.359375 117.253906 L 81.539062 117.253906 C 84.828125 117.253906 84.964844 113.328125 84.964844 113.328125 L 84.964844 107.945312 C 84.964844 106.683594 84.832031 102.960938 80.511719 102.960938 C 76.191406 102.960938 76.058594 106.484375 76.058594 108.078125 C 76.058594 109.675781 75.128906 111.070312 72.601562 111.070312 C 70.078125 111.070312 69.746094 109.207031 69.746094 109.207031 L 69.746094 94.1875 C 69.746094 93.257812 69.808594 91.726562 72.601562 91.726562 C 75.394531 91.726562 76.324219 93.921875 76.324219 93.921875 L 76.324219 99.507812 C 76.324219 101.234375 78.585938 101.765625 78.585938 101.765625 L 82.308594 101.765625 C 84.699219 101.765625 85.164062 99.238281 85.164062 99.238281 L 85.164062 90.160156 C 85.164062 86.925781 82.101562 86.332031 82.101562 86.332031 Z M 80.878906 103.9375 C 81.972656 103.9375 83.992188 105.066406 84.09375 106.570312 C 84.199219 108.074219 84.09375 112.46875 84.09375 112.46875 C 84.09375 112.46875 83.957031 112.945312 83.070312 112.945312 C 82.179688 112.945312 82.109375 112.367188 82.109375 111.992188 C 82.109375 111.613281 82.109375 107.015625 81.90625 106.65625 C 81.699219 106.296875 80.296875 105.886719 79.953125 105.679688 C 79.613281 105.476562 79.542969 105.167969 79.542969 105.167969 C 79.476562 104.550781 79.785156 103.9375 80.878906 103.9375 Z M 73.519531 112.285156 C 73.863281 112.488281 73.933594 112.796875 73.933594 112.796875 C 74 113.414062 73.691406 114.027344 72.597656 114.027344 C 71.503906 114.027344 66.679688 113.117188 66.648438 110.628906 C 66.628906 109.121094 66.648438 93.292969 66.648438 93.292969 C 66.648438 93.292969 66.785156 92.8125 67.675781 92.8125 C 68.566406 92.8125 68.632812 93.394531 68.632812 93.769531 C 68.632812 94.144531 68.546875 110.25 68.839844 110.542969 C 70.417969 112.121094 73.179688 112.078125 73.519531 112.285156 Z M 83.828125 98.296875 C 83.828125 98.296875 83.691406 98.773438 82.800781 98.773438 C 81.910156 98.773438 81.84375 98.191406 81.84375 97.816406 C 81.84375 97.4375 81.84375 90.132812 81.640625 89.773438 C 81.433594 89.414062 80.03125 89.003906 79.6875 88.800781 C 79.347656 88.59375 79.277344 88.285156 79.277344 88.285156 C 79.210938 87.671875 79.515625 87.054688 80.613281 87.054688 C 81.707031 87.054688 83.726562 88.183594 83.828125 89.6875 C 83.929688 91.191406 83.828125 98.296875 83.828125 98.296875 Z M 107.773438 86.332031 L 100.109375 86.332031 C 98.519531 86.660156 98.207031 88.230469 98.207031 89.164062 C 98.207031 89.933594 98.066406 91.578125 98.863281 92.417969 C 100.488281 92.601562 101.699219 93.941406 101.699219 95.613281 C 101.710938 96.050781 101.632812 96.472656 101.472656 96.878906 C 101.3125 97.285156 101.078125 97.644531 100.769531 97.957031 C 100.464844 98.273438 100.109375 98.511719 99.707031 98.683594 C 99.304688 98.851562 98.882812 98.9375 98.445312 98.9375 C 98.007812 98.9375 97.585938 98.851562 97.183594 98.683594 C 96.777344 98.511719 96.425781 98.273438 96.117188 97.957031 C 95.8125 97.644531 95.578125 97.285156 95.417969 96.878906 C 95.257812 96.472656 95.179688 96.050781 95.191406 95.613281 C 95.191406 94.117188 95.925781 92.890625 97.300781 92.511719 C 98.152344 91.382812 98.203125 90.714844 98.050781 89.195312 C 97.890625 87.597656 97.519531 86.722656 96.167969 86.332031 L 88.992188 86.332031 C 86.574219 86.332031 86.179688 90.15625 86.179688 90.15625 L 86.179688 113.03125 C 86.179688 115.910156 89.285156 117.230469 89.34375 117.253906 L 95.84375 117.253906 C 97.667969 117.253906 98.40625 114.871094 98.40625 113.734375 C 98.40625 112.59375 98.1875 111.886719 97.660156 111.316406 C 97.601562 111.253906 95.285156 110.21875 95.285156 107.578125 C 95.285156 106.5625 96.121094 104.453125 98.277344 104.453125 C 100.429688 104.453125 101.839844 105.597656 101.839844 107.621094 C 101.839844 109.644531 100.476562 110.566406 99.902344 110.832031 C 99.328125 111.097656 98.628906 111.273438 98.628906 113.734375 C 98.628906 115.921875 100.660156 117.253906 101.171875 117.253906 L 108.125 117.253906 C 109.929688 116.816406 110.585938 113.117188 110.585938 113.117188 L 110.585938 90.15625 C 110.585938 87.035156 107.773438 86.332031 107.773438 86.332031 Z M 96.929688 87.726562 C 97.734375 88.527344 97.535156 90.234375 96.980469 90.488281 C 96.429688 90.738281 96.730469 89.632812 95.878906 88.832031 C 95.023438 88.027344 93.875 89.023438 93.921875 87.675781 C 93.945312 87.035156 96.34375 87.136719 96.929688 87.726562 Z M 96.761719 112.363281 C 97 112.902344 96.554688 113.917969 95.769531 113.882812 C 94.980469 113.847656 93.613281 112.515625 92.859375 111.285156 C 92.152344 110.125 91.835938 109.230469 91.664062 108.445312 C 91.5 107.6875 91.460938 106.890625 92.003906 106.59375 C 92.027344 106.582031 92.429688 106.101562 93.132812 106.824219 C 93.613281 107.316406 93.355469 108.433594 94.535156 110.1875 C 95.664062 111.863281 96.519531 111.832031 96.761719 112.363281 Z M 97.539062 101.695312 C 95.625 101.59375 93.570312 100.421875 92.546875 97.660156 C 92.046875 96.3125 92.222656 94.238281 92.851562 94.238281 C 94.121094 93.964844 93.152344 96.816406 95.375 98.765625 C 96.628906 100.070312 98.703125 99.945312 98.976562 100.191406 C 99.355469 100.535156 99.457031 101.800781 97.539062 101.695312 Z M 109.300781 113.433594 C 109.300781 113.433594 109.164062 113.910156 108.277344 113.910156 C 107.386719 113.910156 107.316406 113.328125 107.316406 112.953125 C 107.316406 112.578125 107.316406 90.214844 107.113281 89.855469 C 106.90625 89.496094 105.503906 89.085938 105.164062 88.882812 C 104.820312 88.675781 104.75 88.367188 104.75 88.367188 C 104.683594 87.753906 104.992188 87.136719 106.085938 87.136719 C 107.183594 87.136719 109.199219 88.265625 109.300781 89.769531 C 109.40625 91.277344 109.300781 113.433594 109.300781 113.433594 Z M 29.09375 86.375 L 12.117188 86.375 C 8.953125 86.375 8.027344 90.203125 8.027344 90.203125 L 8.027344 113.03125 C 8.027344 116.285156 10.621094 117.078125 10.621094 117.078125 L 18.40625 117.078125 C 21.96875 117.078125 21.484375 113.820312 20.867188 113.117188 C 20.25 112.414062 17.660156 111.359375 17.660156 108.105469 C 17.660156 104.847656 20.253906 104.71875 20.253906 104.71875 L 29.710938 104.71875 C 32.613281 104.71875 32.835938 102.078125 32.835938 102.078125 L 32.835938 90.070312 C 32.835938 86.636719 29.09375 86.375 29.09375 86.375 Z M 19.691406 113.117188 C 19.929688 113.652344 19.488281 114.671875 18.699219 114.636719 C 17.914062 114.601562 16.542969 113.269531 15.792969 112.035156 C 15.082031 110.875 14.765625 109.984375 14.59375 109.195312 C 14.429688 108.441406 14.390625 107.640625 14.9375 107.347656 C 14.957031 107.335938 15.363281 106.855469 16.066406 107.574219 C 16.542969 108.066406 16.285156 109.1875 17.46875 110.941406 C 18.597656 112.617188 19.453125 112.582031 19.691406 113.117188 Z M 19.792969 102.148438 C 17.878906 102.046875 15.382812 100.335938 14.800781 98.113281 C 14.4375 96.722656 14.476562 94.691406 15.109375 94.691406 C 16.375 94.417969 15.519531 97.15625 17.742188 99.105469 C 18.769531 100.304688 20.957031 100.398438 21.230469 100.644531 C 21.605469 100.988281 21.710938 102.253906 19.792969 102.148438 Z M 20.644531 99 C 20.214844 99 19.796875 98.917969 19.398438 98.75 C 19 98.585938 18.648438 98.351562 18.34375 98.046875 C 18.039062 97.742188 17.804688 97.386719 17.636719 96.988281 C 17.472656 96.589844 17.390625 96.175781 17.390625 95.746094 C 17.390625 95.3125 17.472656 94.898438 17.636719 94.5 C 17.804688 94.101562 18.039062 93.75 18.34375 93.441406 C 18.648438 93.136719 19 92.902344 19.398438 92.738281 C 19.796875 92.574219 20.214844 92.488281 20.644531 92.488281 C 21.078125 92.488281 21.492188 92.574219 21.890625 92.738281 C 22.289062 92.902344 22.640625 93.136719 22.945312 93.441406 C 23.25 93.75 23.484375 94.101562 23.652344 94.5 C 23.816406 94.898438 23.898438 95.3125 23.898438 95.746094 C 23.898438 96.175781 23.816406 96.589844 23.652344 96.988281 C 23.484375 97.386719 23.25 97.742188 22.945312 98.046875 C 22.640625 98.351562 22.289062 98.585938 21.890625 98.75 C 21.492188 98.917969 21.078125 99 20.644531 99 Z M 32.007812 101.089844 C 32.007812 101.089844 31.871094 101.570312 30.980469 101.570312 C 30.09375 101.570312 30.023438 100.988281 30.023438 100.609375 C 30.023438 100.234375 30.023438 90.515625 29.816406 90.160156 C 29.613281 89.800781 28.210938 89.390625 27.871094 89.183594 C 27.527344 88.980469 27.457031 88.671875 27.457031 88.671875 C 27.390625 88.054688 27.699219 87.4375 28.792969 87.4375 C 29.886719 87.4375 31.90625 88.566406 32.007812 90.074219 C 32.109375 91.578125 32.007812 101.089844 32.007812 101.089844 Z M 56.144531 86.332031 L 37.363281 86.332031 C 34.941406 86.332031 34.550781 90.15625 34.550781 90.15625 L 34.550781 113.03125 C 34.550781 115.910156 37.65625 117.230469 37.714844 117.253906 L 44.210938 117.253906 C 46.039062 117.226562 46.777344 114.871094 46.777344 113.734375 C 46.777344 112.59375 46.558594 111.886719 46.03125 111.316406 C 45.972656 111.253906 43.652344 110.21875 43.652344 107.578125 C 43.652344 106.5625 44.492188 104.453125 46.644531 104.453125 C 48.800781 104.453125 50.207031 105.597656 50.207031 107.621094 C 50.207031 109.644531 48.84375 110.566406 48.273438 110.832031 C 47.703125 111.097656 46.996094 111.273438 46.996094 113.734375 C 46.996094 115.921875 49.046875 117.03125 49.511719 117.253906 L 56.496094 117.253906 C 58.347656 117.253906 58.957031 113.117188 58.957031 113.117188 L 58.957031 90.15625 C 58.957031 87.035156 56.144531 86.332031 56.144531 86.332031 Z M 45.128906 112.363281 C 45.367188 112.902344 44.925781 113.917969 44.136719 113.882812 C 43.351562 113.847656 41.984375 112.515625 41.230469 111.285156 C 40.523438 110.125 40.203125 109.230469 40.035156 108.445312 C 39.867188 107.6875 39.832031 106.890625 40.375 106.59375 C 40.398438 106.582031 40.800781 106.101562 41.503906 106.824219 C 41.984375 107.316406 41.726562 108.433594 42.90625 110.1875 C 44.035156 111.863281 44.890625 111.832031 45.128906 112.363281 Z M 45.910156 101.695312 C 43.996094 101.59375 41.496094 99.886719 40.917969 97.660156 C 40.550781 96.269531 40.59375 94.238281 41.222656 94.238281 C 42.488281 93.964844 41.632812 96.703125 43.859375 98.65625 C 44.882812 99.851562 47.074219 99.945312 47.347656 100.195312 C 47.722656 100.535156 47.824219 101.800781 45.910156 101.695312 Z M 46.816406 98.867188 C 46.382812 98.867188 45.96875 98.785156 45.570312 98.617188 C 45.171875 98.453125 44.820312 98.21875 44.515625 97.914062 C 44.210938 97.609375 43.976562 97.257812 43.8125 96.855469 C 43.644531 96.457031 43.5625 96.042969 43.5625 95.613281 C 43.5625 95.179688 43.644531 94.765625 43.8125 94.367188 C 43.976562 93.96875 44.210938 93.617188 44.515625 93.3125 C 44.820312 93.007812 45.171875 92.769531 45.570312 92.605469 C 45.96875 92.441406 46.382812 92.355469 46.816406 92.355469 C 47.246094 92.355469 47.660156 92.441406 48.058594 92.605469 C 48.457031 92.769531 48.808594 93.007812 49.113281 93.3125 C 49.417969 93.617188 49.652344 93.96875 49.820312 94.367188 C 49.984375 94.765625 50.066406 95.179688 50.066406 95.613281 C 50.066406 96.042969 49.984375 96.457031 49.820312 96.855469 C 49.652344 97.257812 49.417969 97.609375 49.113281 97.914062 C 48.808594 98.21875 48.457031 98.453125 48.058594 98.617188 C 47.660156 98.785156 47.246094 98.867188 46.816406 98.867188 Z M 57.972656 113.28125 C 57.972656 113.28125 57.835938 113.761719 56.945312 113.761719 C 56.054688 113.761719 55.988281 113.179688 55.988281 112.800781 C 55.988281 112.425781 55.988281 90.066406 55.785156 89.707031 C 55.578125 89.347656 54.175781 88.9375 53.832031 88.730469 C 53.492188 88.527344 53.421875 88.21875 53.421875 88.21875 C 53.355469 87.601562 53.664062 86.984375 54.757812 86.984375 C 55.851562 86.984375 57.871094 88.117188 57.972656 89.621094 C 58.078125 91.125 57.972656 113.28125 57.972656 113.28125 Z M 133.664062 86.332031 L 114.882812 86.332031 C 112.460938 86.332031 112.070312 90.15625 112.070312 90.15625 L 112.070312 113.03125 C 112.070312 115.910156 115.175781 117.230469 115.234375 117.253906 L 121.734375 117.253906 C 123.558594 117.253906 124.296875 114.871094 124.296875 113.734375 C 124.296875 112.59375 124.078125 111.886719 123.550781 111.316406 C 123.492188 111.253906 121.171875 110.21875 121.171875 107.578125 C 121.171875 106.5625 122.011719 104.453125 124.167969 104.453125 C 126.320312 104.453125 127.726562 105.597656 127.726562 107.621094 C 127.726562 109.644531 126.367188 110.566406 125.792969 110.832031 C 125.21875 111.097656 124.519531 111.273438 124.519531 113.734375 C 124.519531 115.921875 126.597656 117.03125 127.066406 117.253906 L 134.015625 117.253906 C 135.761719 117.253906 136.472656 113.539062 136.472656 113.15625 L 136.472656 89.902344 C 136.472656 86.992188 133.664062 86.332031 133.664062 86.332031 Z M 122.648438 112.363281 C 122.886719 112.902344 122.445312 113.917969 121.660156 113.882812 C 120.871094 113.847656 119.503906 112.515625 118.75 111.285156 C 118.042969 110.125 117.726562 109.230469 117.554688 108.445312 C 117.390625 107.6875 117.351562 106.890625 117.894531 106.59375 C 117.917969 106.582031 118.320312 106.101562 119.023438 106.824219 C 119.503906 107.316406 119.246094 108.433594 120.425781 110.1875 C 121.554688 111.863281 122.410156 111.832031 122.648438 112.363281 Z M 123.429688 101.695312 C 121.515625 101.59375 119.015625 99.886719 118.4375 97.660156 C 118.074219 96.269531 118.113281 94.238281 118.742188 94.238281 C 120.011719 93.964844 119.152344 96.703125 121.378906 98.65625 C 122.40625 99.851562 124.59375 99.945312 124.867188 100.195312 C 125.242188 100.535156 125.347656 101.800781 123.429688 101.695312 Z M 124.335938 98.867188 C 123.902344 98.867188 123.488281 98.785156 123.089844 98.617188 C 122.691406 98.453125 122.339844 98.21875 122.035156 97.914062 C 121.730469 97.609375 121.496094 97.257812 121.332031 96.855469 C 121.167969 96.457031 121.085938 96.042969 121.085938 95.613281 C 121.085938 95.179688 121.167969 94.765625 121.332031 94.367188 C 121.496094 93.96875 121.730469 93.617188 122.035156 93.3125 C 122.339844 93.007812 122.691406 92.769531 123.089844 92.605469 C 123.488281 92.441406 123.902344 92.355469 124.335938 92.355469 C 124.769531 92.355469 125.183594 92.4375 125.582031 92.601562 C 125.980469 92.769531 126.335938 93.003906 126.640625 93.308594 C 126.945312 93.613281 127.183594 93.964844 127.347656 94.367188 C 127.511719 94.765625 127.597656 95.179688 127.597656 95.613281 C 127.597656 96.042969 127.511719 96.460938 127.347656 96.859375 C 127.183594 97.257812 126.945312 97.609375 126.640625 97.917969 C 126.335938 98.222656 125.980469 98.457031 125.582031 98.621094 C 125.183594 98.785156 124.769531 98.867188 124.335938 98.867188 Z M 135.191406 113.433594 C 135.191406 113.433594 135.054688 113.910156 134.167969 113.910156 C 133.277344 113.910156 133.210938 113.328125 133.210938 112.953125 C 133.210938 112.578125 133.207031 90.214844 133.003906 89.855469 C 132.796875 89.496094 131.394531 89.085938 131.054688 88.882812 C 130.847656 88.765625 130.710938 88.59375 130.640625 88.367188 C 130.574219 87.753906 130.882812 87.136719 131.976562 87.136719 C 133.070312 87.136719 135.089844 88.265625 135.191406 89.769531 C 135.296875 91.277344 135.191406 113.433594 135.191406 113.433594 Z M 135.191406 113.433594 " fill-opacity="1" fill-rule="evenodd"/></svg>